<?xml version="1.0" encoding="UTF-8" standalone="no"?>
<!-- Created with Inkscape (http://www.inkscape.org/) -->

<svg
   xmlns:dc="http://purl.org/dc/elements/1.1/"
   xmlns:cc="http://creativecommons.org/ns#"
   xmlns:rdf="http://www.w3.org/1999/02/22-rdf-syntax-ns#"
   xmlns:svg="http://www.w3.org/2000/svg"
   xmlns="http://www.w3.org/2000/svg"
   xmlns:sodipodi="http://sodipodi.sourceforge.net/DTD/sodipodi-0.dtd"
   xmlns:inkscape="http://www.inkscape.org/namespaces/inkscape"
   width="106"
   height="106"
   viewBox="0 0 106 106"
   id="svg2"
   version="1.1"
   inkscape:version="0.91 r13725"
   sodipodi:docname="trama_electro.svg">
  <defs
     id="defs4" />
  <sodipodi:namedview
     id="base"
     pagecolor="#ffffff"
     bordercolor="#666666"
     borderopacity="1.0"
     inkscape:pageopacity="0.0"
     inkscape:pageshadow="2"
     inkscape:zoom="2.2683184"
     inkscape:cx="69.654293"
     inkscape:cy="62.89174"
     inkscape:document-units="px"
     inkscape:current-layer="layer1"
     showgrid="false"
     units="px"
     inkscape:window-width="1366"
     inkscape:window-height="718"
     inkscape:window-x="0"
     inkscape:window-y="24"
     inkscape:window-maximized="1" />
  <metadata
     id="metadata7">
    <rdf:RDF>
      <cc:Work
         rdf:about="">
        <dc:format>image/svg+xml</dc:format>
        <dc:type
           rdf:resource="http://purl.org/dc/dcmitype/StillImage" />
        <dc:title></dc:title>
      </cc:Work>
    </rdf:RDF>
  </metadata>
  <g
     inkscape:label="Capa 1"
     inkscape:groupmode="layer"
     id="layer1"
     transform="translate(0,-946.36216)">
    <path
       style="opacity:0.076;fill:#000000"
       d="m 3.53531,1048.4992 c 0,-1.1176 0.30934,-1.4754 1.38297,-1.5992 1.04846,-0.121 1.14392,-0.6827 1.17278,-6.9001 0.018,-3.7711 0.1284,-5.6465 0.38422,-6.497 0.38645,-1.2849 1.48285,-2.6234 2.63823,-3.2209 1.10571,-0.5717 3.54325,-0.8759 5.06983,-0.6326 3.5979,0.5735 5.3183,2.6466 5.35622,6.4542 0.006,0.6883 0.1308,1.3697 0.2754,1.5143 0.1446,0.1446 0.26294,0.4691 0.26294,0.7211 0,0.2857 0.1882,0.4581 0.50004,0.4581 0.75365,0 1.02697,0.7801 1.02697,2.9312 0,1.458 -0.0798,1.9136 -0.31812,1.8148 -1.67225,-0.6935 -2.22373,-0.7444 -3.36057,-0.3102 -2.14112,0.8177 -3.02094,3.1808 -1.94954,5.2363 l 0.54334,1.0424 -1.46594,-0.076 -1.46596,-0.076 -0.0698,-3.9615 c -0.0664,-3.7637 -0.0408,-4.0051 0.51236,-4.8355 0.32022,-0.4807 1.01016,-1.0838 1.53322,-1.3403 0.69774,-0.3422 0.95102,-0.6262 0.95102,-1.0666 0,-0.3302 0.1146,-0.6711 0.2545,-0.7576 0.37806,-0.2337 0.308,-2.3061 -0.112,-3.3111 -0.5576,-1.3345 -1.70436,-1.9043 -3.83284,-1.9043 -2.11258,0 -3.13321,0.5007 -3.77427,1.8517 -0.35528,0.7487 -0.425,1.7766 -0.425,6.2653 0,3.4101 0.0928,5.3697 0.2545,5.3697 0.14,0 0.2545,0.2863 0.2545,0.6362 0,0.5502 0.1136,0.6363 0.83984,0.6363 1.09171,0 1.45067,0.3904 1.45067,1.5779 l 0,0.9671 -3.94477,0 -3.94476,0 0,-0.9869 z m 4.33072,-8.4933 c 0.004,-5.3902 0.0316,-5.7116 0.57486,-6.6806 0.79664,-1.4211 2.11381,-2.0324 4.38373,-2.0344 3.2073,0 4.7189,1.3354 4.96276,4.3937 0.1742,2.1833 0.62068,2.1395 0.7013,-0.069 0.0876,-2.4017 -0.532,-3.5342 -2.4828,-4.5371 -1.26668,-0.6513 -1.59432,-0.7103 -3.4462,-0.6211 -2.52941,0.122 -4.01731,0.8418 -4.87683,2.3595 -0.55244,0.9754 -0.57632,1.2607 -0.58034,6.9344 -0.004,5.0919 0.049,5.9171 0.37758,5.9171 0.32776,0 0.38234,-0.8007 0.38594,-5.6626 z m 9.41803,8.7228 c -1.83638,-1.9659 -0.61438,-4.8379 2.05962,-4.8407 1.84073,0 3.08617,1.7584 2.53821,3.5874 -0.59818,1.9966 -3.23267,2.7147 -4.59783,1.2533 z m 2.74392,-1.946 c 0.0546,-0.5612 -0.0494,-0.8433 -0.354,-0.9602 -0.69596,-0.267 -1.3776,0.081 -1.3776,0.7031 0,1.3733 1.59986,1.6108 1.7316,0.2571 z m 36.31631,2.4061 c -1.27264,-0.7387 -1.22162,-2.0478 0.1658,-4.2562 0.58114,-0.925 1.18238,-1.7659 1.33614,-1.8688 0.1538,-0.1028 0.76624,-0.1888 1.36116,-0.1908 0.91064,0 1.08162,-0.084 1.08162,-0.5129 0,-0.4465 -0.1696,-0.509 -1.38158,-0.509 -1.47778,0 -2.06748,-0.3481 -2.32452,-1.3722 -0.0792,-0.3152 -0.108,-2.7226 -0.064,-5.3497 0.0784,-4.6961 0.0902,-4.785 0.69332,-5.2729 0.58334,-0.4718 1.0001,-0.4926 8.48292,-0.4223 7.45005,0.07 7.88873,0.1002 8.23045,0.5679 0.28326,0.3876 0.36098,1.5946 0.36098,5.606 0,6.1377 -0.0368,6.2432 -2.1777,6.2432 -1.21564,0 -1.38532,0.062 -1.38532,0.509 0,0.434 0.1696,0.509 1.1504,0.509 1.14684,0 1.15402,0.01 2.32398,1.8142 1.31378,2.0309 1.57046,3.4299 0.7753,4.2256 -0.41024,0.4105 -1.22482,0.4555 -9.28483,0.5127 -6.34694,0.045 -8.9785,-0.021 -9.34414,-0.2327 z m 16.44941,-3.8384 c -0.42428,-0.7348 -0.89182,-1.3246 -1.039,-1.3106 -0.1472,0.014 -3.15938,0.044 -6.69377,0.067 l -6.42614,0.042 -0.6998,1.2688 -0.6998,1.2688 8.16496,0 8.16497,0 -0.77142,-1.3361 z m -0.1614,-9.6074 0,-4.4537 -7.18965,-0.068 -7.18964,-0.068 0,4.5889 0,4.589 7.18964,-0.068 7.18965,-0.068 0,-4.4538 z m -13.75833,3.7422 c -0.0696,-0.1814 -0.0946,-1.9852 -0.0556,-4.0084 l 0.071,-3.6785 6.5534,-0.068 6.55341,-0.068 0,4.0763 0,4.0763 -6.49777,0 c -5.0864,0 -6.52526,-0.072 -6.62434,-0.3298 z m 2.17854,-3.8694 c 0,-2.7571 -0.0296,-2.9268 -0.509,-2.9268 -0.4795,0 -0.50902,0.1696 -0.50902,2.9268 0,2.7571 0.0296,2.9267 0.50902,2.9267 0.4795,0 0.509,-0.1696 0.509,-2.9267 z m 22.19249,13.5649 c -0.1828,-0.1828 -0.3054,-1.0651 -0.3054,-2.1968 0,-1.8368 0.0262,-1.9161 0.90278,-2.7429 0.75414,-0.7112 0.8589,-0.9334 0.63626,-1.3495 -0.1466,-0.2739 -0.26654,-1.1927 -0.26654,-2.0417 l 0,-1.5437 2.92678,0 c 1.78148,0 2.92674,0.1 2.92674,0.2544 0,0.14 0.27694,0.2546 0.61546,0.2546 1.1362,0 1.42056,0.2539 1.42056,1.2685 0,1.0952 -0.31508,1.4496 -1.39758,1.5721 -0.4626,0.052 -0.7929,0.2526 -0.84174,0.5105 -0.071,0.375 0.20966,0.4194 2.41556,0.3817 l 2.496,-0.043 0.0716,-2.9904 0.0716,-2.9904 -2.91714,0 c -2.8314,0 -2.91952,0.016 -2.99846,0.5727 -0.0446,0.3149 -0.2531,0.5726 -0.46308,0.5726 -0.20994,0 -0.49478,-0.2577 -0.63296,-0.5726 -0.1382,-0.315 -0.3687,-0.5727 -0.51228,-0.5727 -0.1436,0 -0.3741,0.2577 -0.51228,0.5727 -0.1382,0.3149 -0.42302,0.5726 -0.63298,0.5726 -0.20996,0 -0.49478,-0.2577 -0.63296,-0.5726 -0.185,-0.4218 -0.46526,-0.5727 -1.06346,-0.5727 -1.36794,0 -1.61208,-0.4874 -1.61208,-3.219 0,-2.3344 0.026,-2.4452 0.74392,-3.1631 l 0.74392,-0.7439 9.06066,0 9.06066,0 0.26056,0.6853 c 0.30896,0.8127 0.21866,17.596 -0.0974,18.0842 -0.29158,0.4505 -19.01698,0.4627 -19.46702,0.012 z m 18.52768,-2.6214 0,-1.9087 -8.51138,0 c -8.50686,0 -8.51154,2e-4 -8.9075,0.5656 -0.39284,0.5609 -0.55408,2.7547 -0.22652,3.0822 0.0934,0.093 4.1017,0.1696 8.90752,0.1696 l 8.73788,0 0,-1.9087 z m -15.7606,-3.5973 c -0.36946,-0.4697 -0.52746,-1.0415 -0.52746,-1.9088 0,-0.681 -0.1146,-1.2381 -0.2545,-1.2381 -0.36752,0 -0.31366,2.6276 0.0636,3.1033 0.26312,0.3317 0.66666,0.5724 1.16372,0.6941 0.0452,0.012 -0.1552,-0.2817 -0.44536,-0.6505 z m 15.7606,-5.4375 0,-6.108 -8.39852,0 c -9.99006,0 -9.41656,-0.1782 -9.41656,2.9268 l 0,1.9087 5.98078,0 5.98076,0 0,3.6903 0,3.6903 2.92678,0 2.92676,0 0,-6.1081 z m -4.48834,-0.1256 c -0.0882,-0.2297 -0.0382,-0.5397 0.111,-0.6888 0.38776,-0.3878 1.12244,-0.033 1.02116,0.4926 -0.1128,0.5858 -0.92834,0.7272 -1.13208,0.1962 z m 1.98924,-0.19 c 0.0974,-0.6826 0.8422,-0.899 1.06812,-0.3102 0.21488,0.5599 -0.018,0.8803 -0.63776,0.8803 -0.3845,0 -0.49146,-0.1418 -0.43036,-0.5701 z m -1.97298,-1.5491 c -0.0766,-0.1998 -0.104,-0.9213 -0.0604,-1.6034 l 0.0788,-1.2402 1.22866,-0.078 c 1.65896,-0.1058 1.9952,0.2192 1.90086,1.8373 l -0.0756,1.2951 -1.46644,0.076 c -1.0886,0.057 -1.5024,-0.018 -1.60586,-0.2868 z m -5.96246,5.401 c 0,-0.3899 -0.1398,-0.4977 -0.56646,-0.4364 -0.51002,0.073 -0.65946,0.4976 -0.47982,1.3628 0.0782,0.3764 1.04628,-0.4807 1.04628,-0.9264 z m -60.82573,7.6617 c -0.47592,-0.4759 -0.509,-0.8483 -0.509,-5.7263 0,-4.8779 0.033,-5.2503 0.509,-5.7262 0.31508,-0.3151 0.84832,-0.509 1.39974,-0.509 0.78048,0 0.89076,-0.079 0.89076,-0.6363 0,-0.3499 -0.1174,-0.6362 -0.2608,-0.6362 -0.49602,0 -0.78968,-1.2938 -0.49576,-2.1843 0.67506,-2.0454 6.16604,-2.974 11.1349,-1.8829 1.92754,0.4232 2.8557,1.2792 2.8557,2.6335 0,0.7511 -0.1504,1.1948 -0.509,1.5019 -0.85016,0.7279 -0.64882,1.2043 0.509,1.2043 1.608,0 2.03602,0.6117 2.03602,2.9098 0,1.8747 0.006,1.8926 0.69988,1.9724 0.59008,0.068 0.69988,0.2003 0.69988,0.844 0,0.6438 -0.1098,0.7762 -0.69988,0.8441 l -0.69988,0.081 0,2.4008 c 0,3.6688 0.66056,3.4189 -9.03478,3.4189 -7.67746,0 -8.03834,-0.022 -8.52578,-0.509 z m 16.13998,-0.6635 c 0.34724,-0.1332 0.40258,-0.8085 0.40258,-4.9118 0,-3.3609 -0.0896,-4.8471 -0.30542,-5.0628 -0.22334,-0.2234 -2.2689,-0.3054 -7.6142,-0.3054 -4.01986,0 -7.48996,0.07 -7.71138,0.1544 -0.34786,0.1336 -0.40256,0.8223 -0.40256,5.0688 0,3.6933 0.079,4.9462 0.31812,5.0427 0.45876,0.1852 14.8327,0.1984 15.31286,0.014 z m 12.8916,-25.9662 c -0.60404,-0.7679 -0.70174,-2.406 -0.20238,-3.3928 0.179,-0.3538 0.67712,-0.7308 1.1415,-0.864 1.1199,-0.3212 1.04764,-0.8288 -0.32136,-2.2574 l -1.14524,-1.1952 0,-3.1426 c 0,-2.8107 0.0548,-3.2013 0.5189,-3.6995 0.28542,-0.3063 0.61658,-0.557 0.73592,-0.557 0.1194,0 0.28694,-0.2786 0.37244,-0.6193 0.29822,-1.1883 2.44474,-1.1989 2.44474,-0.012 0,0.907 0.66802,0.795 1.16722,-0.1958 0.70344,-1.396 1.91636,-2.4704 3.22903,-2.8602 1.66982,-0.4959 4.37158,-0.3329 5.24656,0.3165 1.18846,0.8821 1.29298,1.3947 1.297,6.3613 0.006,6.1366 0.50042,5.662 -5.9134,5.6646 l -4.89915,0 -0.31812,0.685 c -0.47452,1.0217 -0.39644,1.2677 0.45664,1.4383 0.9688,0.1938 1.4898,1.3321 1.356,2.9627 -0.1336,1.6277 -0.71594,2.036 -2.904,2.036 -1.57106,0 -1.78464,-0.063 -2.2623,-0.6705 z m 1.76304,-1.7472 c 0,-1.2301 -0.0618,-1.3997 -0.50902,-1.3997 -0.4388,0 -0.509,0.1696 -0.509,1.2301 0,1.2912 0.1202,1.5694 0.67866,1.5694 0.24166,0 0.33936,-0.403 0.33936,-1.3998 z m 2.24016,-0.066 c 0.0692,-1.2003 0.0246,-1.3337 -0.44536,-1.3337 -0.46426,0 -0.5223,0.1576 -0.5223,1.4184 0,1.2135 0.0644,1.4062 0.44536,1.3338 0.34424,-0.065 0.46286,-0.3876 0.5223,-1.4185 z m 9.19393,-6.0197 c 0.1794,-0.2163 0.26794,-1.0024 0.22204,-1.9724 l -0.0764,-1.6129 -3.563,-0.1272 -3.56303,-0.1272 -0.0844,-0.8897 c -0.0464,-0.4894 -0.2036,-1.0334 -0.34926,-1.2089 -0.3272,-0.3942 -4.67516,-0.4459 -4.91466,-0.058 -0.0886,0.1434 -0.1612,1.5343 -0.1612,3.091 0,2.0714 0.0904,2.8875 0.33698,3.0439 0.1854,0.1176 2.9284,0.2154 6.09573,0.2176 4.65372,0 5.81598,-0.065 6.05712,-0.3557 z m -11.68861,-1.422 c 0,-0.4605 0.1696,-0.509 1.7815,-0.509 1.61184,0 1.7815,0.049 1.7815,0.509 0,0.4605 -0.1696,0.509 -1.7815,0.509 -1.61182,0 -1.7815,-0.049 -1.7815,-0.509 z m 0.1804,-1.1769 c -0.0992,-0.099 -0.1804,-0.3332 -0.1804,-0.5198 0,-0.2508 0.4697,-0.3393 1.80016,-0.3393 1.57712,0 1.78966,0.055 1.71532,0.4453 -0.0676,0.3552 -0.39584,0.4605 -1.61972,0.5198 -0.8442,0.041 -1.61608,-0.01 -1.71532,-0.106 z m -0.0332,-1.5602 c -0.081,-0.081 -0.1474,-0.3 -0.1474,-0.4866 0,-0.2508 0.4697,-0.3393 1.80018,-0.3393 1.57736,0 1.78958,0.055 1.71464,0.4453 -0.0692,0.3611 -0.38222,0.4532 -1.65286,0.4867 -0.86204,0.023 -1.63364,-0.025 -1.71466,-0.106 z m 10.54177,-2.4293 c 0,-1.1057 -0.1236,-1.9815 -0.30542,-2.1632 -0.41208,-0.4121 -2.5694,-0.3871 -3.59552,0.042 -1.10072,0.4599 -1.80587,1.521 -1.45114,2.1838 0.1442,0.2693 0.26206,0.7835 0.26206,1.1427 l 0,0.653 2.54498,0 2.54504,0 0,-1.8579 z m -65.60136,14.3228 c -0.82554,-0.337 -0.97004,-0.926 -1.30966,-5.3389 -0.51919,-6.7463 -0.52521,-6.782 -1.20167,-7.144 -0.79796,-0.4271 -0.84652,-2.1483 -0.0878,-3.1129 0.63762,-0.8106 2.86263,-1.6665 4.88052,-1.8774 1.26296,-0.132 1.56818,-0.2597 1.79129,-0.7493 0.3436,-0.7541 1.71814,-1.2092 3.1612,-1.0465 1.12276,0.1266 2.12274,0.7557 2.12274,1.3355 0,0.186 0.58796,0.3675 1.49928,0.4627 1.87044,0.1956 4.26255,1.0735 5.03821,1.8492 0.8357,0.8357 0.81812,2.4301 -0.0342,3.1005 -0.5934,0.4668 -0.64162,0.7223 -1.0246,5.4267 -0.22104,2.7152 -0.46133,5.3087 -0.53397,5.7632 -0.2313,1.4474 -0.77024,1.5577 -7.636,1.5623 -3.34899,0 -6.3484,-0.1018 -6.66538,-0.2311 z m 13.18648,-1.3305 c 0.006,-0.175 0.21128,-2.6373 0.45438,-5.4718 l 0.44202,-5.1536 -1.28152,-0.021 c -2.81938,-0.047 -13.44856,0.016 -13.49322,0.08 -0.0262,0.038 0.1564,2.3589 0.40576,5.1584 0.24944,2.7995 0.45964,5.2332 0.4671,5.4082 0.01,0.2458 1.48843,0.3181 6.50336,0.3181 5.01554,0 6.49258,-0.072 6.50212,-0.3181 z m -9.14297,-5.1158 c -0.28184,-0.3396 -0.37368,-3.6884 -0.125,-4.5553 0.111,-0.3871 0.47129,-0.4453 2.75567,-0.4453 2.16152,0 2.6553,0.071 2.78236,0.4025 0.28392,0.7399 0.1674,4.3182 -0.151,4.6366 -0.44586,0.4459 -4.88716,0.4134 -5.26219,-0.038 z m 2.00459,-2.3284 c 0,-1.4845 -0.0522,-1.6542 -0.509,-1.6542 -0.45174,0 -0.509,0.1696 -0.509,1.5083 0,1.2225 0.0844,1.5304 0.44538,1.6248 0.24494,0.064 0.474,0.1296 0.509,0.1458 0.035,0.016 0.0636,-0.7149 0.0636,-1.6248 z m -3.89357,2.2569 c -0.0982,-0.098 -0.1784,-0.3964 -0.1784,-0.6627 0,-0.3567 0.151,-0.4629 0.57264,-0.403 0.37434,0.053 0.57262,0.2564 0.57262,0.5869 0,0.5048 -0.62918,0.8164 -0.9668,0.4788 z m 8.05827,-0.2192 c -0.0882,-0.2297 -0.0382,-0.5397 0.111,-0.6888 0.38778,-0.3878 1.12246,-0.033 1.02118,0.4926 -0.1128,0.5858 -0.92834,0.7272 -1.13208,0.1962 z m -8.06705,-1.5711 c -0.37288,-0.3729 -0.1582,-1.1028 0.3243,-1.1028 0.59966,0 0.83334,0.3245 0.62488,0.8678 -0.1594,0.4155 -0.64778,0.5364 -0.94918,0.235 z m 8.06705,-0.2104 c -0.0882,-0.2297 -0.0382,-0.5397 0.111,-0.6888 0.38778,-0.3878 1.12246,-0.033 1.02118,0.4926 -0.1128,0.5858 -0.92834,0.7272 -1.13208,0.1962 z m -8.06705,-1.5711 c -0.37288,-0.3729 -0.1582,-1.1028 0.3243,-1.1028 0.64964,0 0.89968,0.4381 0.51478,0.9019 -0.336,0.4048 -0.57738,0.4626 -0.83908,0.2009 z m 8.25541,-0.063 c -0.49664,-0.3141 -0.1532,-1.0395 0.49216,-1.0395 0.40408,0 0.51484,0.135 0.45336,0.5527 -0.0934,0.6347 -0.43428,0.8102 -0.94552,0.4868 z m 4.93623,-3.9388 c 0,-1.7697 -3.26649,-2.5651 -9.79667,-2.3858 -5.5887,0.1536 -7.63667,0.8315 -7.63667,2.5283 l 0,0.7274 8.71669,-0.067 8.71665,-0.067 0,-0.736 z m 8.43796,13.8864 c -0.54846,-0.6061 -0.56448,-3.1005 -0.0272,-4.2328 0.2167,-0.4567 0.6802,-0.9607 1.02998,-1.1201 0.40594,-0.185 2.42662,-0.2897 5.58674,-0.2897 l 4.9508,0 0,-2.7723 c 0,-3.0983 0.008,-3.0842 -1.86592,-3.0773 -1.24176,0 -1.47458,0.1374 -1.88768,1.0777 -0.1692,0.3849 -0.45806,0.6999 -0.64208,0.6999 -0.184,0 -0.44414,0.3722 -0.57808,0.8271 -0.21026,0.7142 -0.37048,0.8377 -1.17378,0.9047 -0.75038,0.063 -0.96132,0.2011 -1.09072,0.7168 -0.1996,0.7953 -0.99692,0.7259 -1.11434,-0.097 -0.065,-0.456 -0.24586,-0.5701 -0.90346,-0.5701 -0.96906,0 -1.43296,-0.3872 -1.43296,-1.1961 0,-0.3444 -0.1534,-0.5854 -0.3728,-0.5854 -0.68422,0 -0.89974,-0.9601 -0.89596,-3.9916 0.006,-5.3036 -0.32852,-5.1449 10.85112,-5.1378 7.2674,0 8.54476,0.061 8.87742,0.3939 0.31434,0.3144 0.37492,0.979 0.31728,3.4804 -0.0674,2.9291 -0.1014,3.1051 -0.6439,3.3431 -0.54506,0.2391 -0.57262,0.3892 -0.57262,3.1176 0,1.5943 0.1048,2.8664 0.23634,2.8664 0.13,0 0.41628,0.18 0.63624,0.4 0.30338,0.3033 0.39994,0.9442 0.39994,2.654 0,1.7099 -0.0966,2.3508 -0.39994,2.6541 -0.34886,0.3489 -1.5785,0.4 -9.63158,0.4 -8.62028,0 -9.25956,-0.031 -9.65286,-0.4655 z m 18.41188,-3.0976 0,-1.2725 -8.47486,0 c -6.25226,0 -8.55498,0.08 -8.7803,0.3054 -0.168,0.168 -0.3054,0.7406 -0.3054,1.2725 l 0,0.9671 8.78028,0 8.78028,0 0,-1.2725 z m -1.2725,-3.054 c 0,-0.4713 -0.1696,-0.509 -2.2905,-0.509 -2.12084,0 -2.29052,0.038 -2.29052,0.509 0,0.4713 0.1696,0.509 2.29052,0.509 2.12084,0 2.2905,-0.038 2.2905,-0.509 z m 0,-4.072 c 0,-2.2736 0.004,-2.2905 0.63626,-2.2905 0.62826,0 0.63624,-0.027 0.63624,-2.1425 0,-1.1783 0.0696,-2.3236 0.1544,-2.545 0.139,-0.3621 -0.69412,-0.4026 -8.288,-0.4026 -5.33294,0 -8.6238,0.097 -8.93478,0.2635 -0.44626,0.2388 -0.49226,0.5599 -0.49226,3.4358 l 0,3.1723 2.92676,0 2.92676,0 0.0302,-0.6999 c 0.016,-0.385 0.016,-0.7858 0,-0.8908 -0.016,-0.105 1.2869,-0.1908 2.89662,-0.1908 l 2.92676,0 0,2.2905 0,2.2905 2.2905,0 2.29052,0 0,-2.2905 z m -9.67102,-4.8083 c 0,-1.6215 0.158,-1.8088 1.527,-1.8088 1.3689,0 1.527,0.1872 1.527,1.8088 l 0,1.4997 -1.527,0 -1.527,0 0,-1.4997 z m 3.8175,0.9828 c 0,-0.6154 0.7279,-0.9704 1.02014,-0.4976 0.29912,0.484 0.018,1.0145 -0.53836,1.0145 -0.3146,0 -0.48178,-0.1794 -0.48178,-0.5169 z m 0.31814,-1.4435 c -0.39228,-0.1454 -0.41944,-1.0009 -0.0392,-1.2359 0.1534,-0.095 0.46426,0.012 0.69078,0.2395 0.36112,0.3611 0.36594,0.4551 0.0392,0.7631 -0.20496,0.1932 -0.51582,0.2981 -0.69078,0.2333 z m 41.67453,12.7799 0,-0.8939 9.43266,0 9.43266,0 -0.0798,0.8271 -0.0798,0.8271 -9.3529,0.067 -9.35292,0.067 0,-0.8939 z m 0.42102,-2.1029 c -0.1264,-0.2045 3.11398,-9.2135 3.77096,-10.4839 0.59672,-1.154 1.61946,-1.9791 2.83128,-2.2843 1.28122,-0.3226 7.96536,-0.3648 8.45654,-0.053 0.2027,0.1286 0.30412,0.5581 0.2545,1.0777 l -0.0824,0.8641 -3.94476,0.1272 c -4.0918,0.132 -4.72738,0.287 -5.4587,1.3311 -0.56706,0.8096 -0.49828,0.9594 0.44014,0.9594 0.69402,0 0.8836,-0.1288 1.12314,-0.7635 0.2457,-0.6509 0.42148,-0.7635 1.1921,-0.7635 0.91068,0 1.64664,0.7174 1.30424,1.2714 -0.0924,0.1494 1.44698,0.2699 3.99662,0.3129 l 4.14674,0.07 0.0698,4.2629 0.0698,4.2629 -9.02592,0 c -4.96426,0 -9.07902,-0.086 -9.14392,-0.191 z m 17.13954,-3.372 0,-2.545 -6.74426,0 c -3.70936,0 -6.74432,0.029 -6.74438,0.064 -4e-5,0.035 -0.39918,1.1802 -0.88702,2.545 l -0.88698,2.4814 7.63132,0 7.63132,0 0,-2.545 z m -3.4176,0.8725 c -0.8421,-0.8421 -0.33686,-2.145 0.83182,-2.145 1.21406,0 1.72382,1.4651 0.74764,2.1488 -0.7143,0.5003 -1.07624,0.4994 -1.57946,0 z M 34.49949,995.87143 c -0.27654,-0.27652 -0.1934,-1.23174 0.1358,-1.56094 0.168,-0.168 0.68332,-0.3054 1.14524,-0.3054 0.76352,0 0.83986,-0.0694 0.83986,-0.7635 l 0,-0.76352 -2.91684,0 c -4.23234,0 -3.95468,0.55454 -3.95468,-7.89806 0,-6.31537 0.033,-6.81401 0.47822,-7.21689 0.43146,-0.39046 1.3463,-0.43166 9.3529,-0.42128 8.78524,0.012 8.8793,0.018 9.33152,0.56294 0.41876,0.50546 0.45058,1.11978 0.38176,7.36999 -0.0906,8.22168 0.24194,7.58334 -3.95624,7.59522 l -2.86312,0.008 0,0.76352 c 0,0.70378 0.0702,0.7635 0.89622,0.7635 0.70272,0 0.9572,0.1338 1.1787,0.62002 0.61834,1.3571 0.41244,1.41598 -4.95128,1.41598 -2.71058,0 -5.00468,-0.0764 -5.098,-0.1696 z m 13.77238,-10.77388 c 0.0394,-3.28943 0.008,-6.23845 -0.0684,-6.55341 l -0.1402,-0.57262 -8.4937,0 c -7.51036,0 -8.5116,0.0466 -8.64818,0.40256 -0.21316,0.55552 -0.1958,12.45087 0.018,12.66517 0.0952,0.0952 4.01764,0.1428 8.71664,0.106 l 8.54364,-0.067 0.0718,-5.98076 z m -16.56828,5.43298 c -0.0954,-0.0954 -0.1732,-2.77604 -0.1732,-5.95716 0,-5.03937 0.0518,-5.80377 0.40258,-5.93837 0.60614,-0.2326 14.94544,-0.178 15.31776,0.0584 0.24904,0.158 0.30732,1.54186 0.2545,6.04051 l -0.0686,5.83546 -7.77986,0.0672 c -4.27896,0.037 -7.85788,-0.01 -7.95316,-0.106 z m 2.11722,-5.7723 c 0,-2.70621 -0.0684,-4.98883 -0.1522,-5.07251 -0.0836,-0.0836 -0.31272,-0.0906 -0.509,-0.016 -0.28918,0.111 -0.35686,1.07306 -0.35686,5.07249 0,4.76588 0.018,4.93554 0.50898,4.93554 0.49146,0 0.509,-0.1696 0.509,-4.92034 z m 25.4501,10.26486 0,-1.018 6.46254,0 c 7.01733,0 6.77151,-0.0516 6.77151,1.42056 l 0,0.61544 -6.61701,0 -6.61704,0 0,-1.018 z m 26.50161,0.36652 c -0.4901,-0.62304 -0.513,-1.02736 -0.52464,-9.25858 -0.012,-8.31681 0.006,-8.62961 0.51246,-9.27407 l 0.52464,-0.66694 6.59854,0 c 6.25168,0 6.62522,0.0266 7.10582,0.50726 0.48766,0.48766 0.50698,0.85184 0.5003,9.42523 -0.006,8.52202 -0.0292,8.94016 -0.50726,9.41826 -0.47168,0.4717 -0.87784,0.50032 -7.09886,0.50032 l -6.59854,0 -0.51246,-0.65148 z m 13.40016,-0.58172 c 0.24224,-0.1538 0.30812,-0.95978 0.2545,-3.11374 l -0.0724,-2.90634 -6.36252,0 -6.36252,0 -0.0726,2.78316 c -0.04,1.53074 -0.014,2.93368 0.0556,3.11764 0.1012,0.26348 1.41296,0.33366 6.18072,0.33058 3.32882,-0.002 6.19948,-0.0972 6.37926,-0.2113 z m -11.59962,-3.0089 c 0.0588,-1.56884 0.156,-1.99318 0.45648,-1.99318 0.30534,0 0.38174,0.38138 0.38174,1.90528 0,1.62982 -0.066,1.91798 -0.45646,1.99318 -0.41252,0.0794 -0.44926,-0.104 -0.38176,-1.90528 z m 11.50644,-4.3109 c 0.3479,-0.1336 0.40256,-0.82348 0.40256,-5.08151 l 0,-4.92702 -6.38708,-0.0722 c -3.5129,-0.0396 -6.44252,0.018 -6.51026,0.1276 -0.1652,0.26784 -0.0994,9.61921 0.0696,9.89263 0.15,0.24282 11.80232,0.29952 12.42528,0.0604 z m -11.60424,-3.5843 c -0.045,-0.39325 -0.0424,-1.32255 0.006,-2.06509 0.0712,-1.09248 0.1684,-1.33464 0.509,-1.26902 0.62944,0.1212 0.6238,3.84559 -0.006,3.96689 -0.30428,0.0586 -0.45058,-0.1232 -0.509,-0.63278 z m 3.71148,-2.21289 c -0.0744,-0.194 -0.0994,-0.85246 -0.0556,-1.46338 l 0.0796,-1.11074 1.65426,0 1.65426,0 0.0764,1.46336 0.0764,1.4634 -1.67496,0 c -1.19258,0 -1.7139,-0.1016 -1.81026,-0.35264 z m 0.9148,-1.04712 c 0,-0.6299 -0.1146,-1.14526 -0.25452,-1.14526 -0.28106,0 -0.35508,1.85058 -0.0848,2.12084 0.30072,0.3007 0.33936,0.1896 0.33936,-0.97558 z M 4.10245,993.83455 c -0.178,-0.0716 -0.4961,-0.46398 -0.7071,-0.872 -0.31292,-0.60512 -0.37924,-1.87544 -0.35984,-6.89318 0.0266,-6.87075 0.1328,-7.40115 1.53844,-7.68227 1.38463,-0.27694 16.12363,-0.1848 16.95778,0.106 1.24436,0.43378 1.34556,0.9955 1.34556,7.46911 0,6.12164 -0.1592,7.32866 -1.02806,7.79364 -0.47466,0.25404 -17.12746,0.32798 -17.74678,0.0788 z m 17.50232,-7.74886 0,-6.58737 -8.65305,0 -8.65303,0 0,6.61347 0,6.61344 8.08041,0.0672 c 4.44422,0.037 8.3381,0.0252 8.65305,-0.0262 l 0.57262,-0.0932 0,-6.58736 z m -15.52699,5.1621 c -0.1552,-0.0522 -0.25208,-2.03384 -0.25208,-5.15364 l 0,-5.06883 5.44454,0 c 4.72994,0 5.46482,0.0528 5.59902,0.40258 0.085,0.2214 0.1544,2.45825 0.1544,4.97077 0,3.42598 -0.0796,4.5958 -0.31812,4.6786 -0.38284,0.1328 -10.26838,0.2915 -10.62784,0.1706 z m 2.03843,-5.13244 c 0,-3.90235 -0.0212,-4.07201 -0.509,-4.07201 -0.4878,0 -0.50902,0.1696 -0.50902,4.07201 0,3.90236 0.0212,4.07202 0.50902,4.07202 0.4878,0 0.509,-0.1696 0.509,-4.07202 z m 9.84071,4.41136 c -0.37288,-0.37288 -0.1582,-1.10284 0.3243,-1.10284 0.64964,0 0.8997,0.4381 0.51478,0.9019 -0.33598,0.40484 -0.57738,0.46264 -0.83908,0.20094 z m 1.71576,-0.181 c -0.20598,-0.5368 0.0832,-0.92176 0.6923,-0.92176 0.38449,0 0.49147,0.1418 0.43037,0.57002 -0.095,0.66526 -0.90497,0.91904 -1.12267,0.35174 z m -1.88544,-2.17924 c 0,-0.6853 0.48146,-0.91516 0.9453,-0.45132 0.46384,0.46384 0.23398,0.9453 -0.45132,0.9453 -0.3193,0 -0.49398,-0.1746 -0.49398,-0.49398 z m 1.90188,0.22832 c -0.23368,-0.37808 0.35572,-1.0035 0.789,-0.83724 0.55785,0.21406 0.45241,1.1029 -0.1308,1.1029 -0.2717,0 -0.56786,-0.1196 -0.65816,-0.26566 z m -1.80516,-1.88542 c -0.1774,-0.462 0.0802,-0.90294 0.52734,-0.90294 0.46434,0 0.67298,0.63718 0.32316,0.987 -0.38768,0.38768 -0.68058,0.35874 -0.8505,-0.084 z m 1.77748,-0.01 c -0.0882,-0.22972 -0.0382,-0.5397 0.111,-0.68886 0.38776,-0.38776 1.12245,-0.0334 1.02117,0.49258 -0.11281,0.58584 -0.92833,0.72722 -1.13209,0.1962 z m -1.11068,-2.36954 c 0,-0.23224 1.59794,-1.83145 1.83002,-1.83145 0.38389,0 0.43291,0.89494 0.0786,1.43562 -0.26754,0.40833 -0.63578,0.60041 -1.15102,0.60041 -0.4167,0 -0.75764,-0.092 -0.75764,-0.20458 z M 17.919,983.33058 c -0.24244,-0.76386 0.4809,-1.7957 1.25886,-1.7957 0.9771,0 0.9506,0.3562 -0.103,1.38504 -0.93896,0.91689 -0.98946,0.93483 -1.15582,0.41066 z m 40.80747,9.42299 c -0.55398,-0.4503 -0.59588,-0.65076 -0.53756,-2.57236 0.0534,-1.75898 -0.0954,-2.67102 -0.95438,-5.84816 -1.16074,-4.29355 -1.21506,-4.89125 -0.50862,-5.59767 0.40878,-0.40878 0.84832,-0.509 2.23252,-0.509 1.54244,0 1.82156,-0.0808 2.6569,-0.76938 1.1775,-0.9706 2.7217,-1.52114 4.26662,-1.52114 1.58355,0 2.68763,0.3903 4.05617,1.43388 1.09196,0.83268 1.1916,0.85688 3.563,0.86566 2.67788,0.01 3.33426,0.23488 4.10754,1.40788 0.68698,1.04218 0.69516,4.86279 0.014,6.36339 -0.57092,1.25704 -2.1294,2.59586 -3.27106,2.81002 l -0.83936,0.1574 0.0604,1.5273 c 0.0548,1.38982 -0.004,1.5819 -0.6449,2.1339 -0.70288,0.6046 -0.72636,0.6066 -7.15261,0.6066 -5.97812,0 -6.4911,-0.0356 -7.0482,-0.48838 z m 13.43447,-1.11878 c 0.0626,-0.0626 -0.0708,-2.14972 -0.29668,-4.63796 -0.38178,-4.20705 -0.82728,-6.40679 -1.45416,-7.17983 -0.31072,-0.38318 -12.54517,-0.46532 -12.77971,-0.0858 -0.079,0.1278 0.3333,1.9888 0.91618,4.13563 0.86996,3.20412 1.05052,4.25322 1.00788,5.85652 -0.0496,1.86102 -0.0244,1.95708 0.53214,2.036 0.86452,0.1226 11.94147,0.008 12.07435,-0.1246 z m -7.24011,-2.00676 c -0.41658,-0.41658 -0.42958,-7.73185 -0.014,-7.98855 0.47374,-0.2928 1.80525,-0.1634 2.03421,0.1976 0.1164,0.1838 0.21358,1.94312 0.21574,3.90979 0.004,3.83876 -0.1012,4.18654 -1.26863,4.18654 -0.36392,0 -0.79912,-0.1374 -0.9671,-0.3054 z m 0.98384,-0.56518 c -0.20618,-0.24844 -0.27564,-1.40336 -0.22204,-3.69076 0.0502,-2.14047 -0.012,-3.29887 -0.1764,-3.24425 -0.26158,0.0874 -0.50494,6.35399 -0.27048,6.96501 0.07,0.1824 0.31666,0.33158 0.54816,0.33158 0.33484,0 0.35952,-0.074 0.1208,-0.36158 z m 9.01641,-3.14196 c 0.81964,-0.81964 0.9364,-1.30516 0.84174,-3.50057 l -0.0766,-1.7762 -1.68342,-0.0744 -1.68342,-0.0744 0.31382,1.21972 c 0.1726,0.67084 0.39472,2.09434 0.49356,3.16331 0.161,1.74112 0.23004,1.93042 0.6629,1.81722 0.26576,-0.0694 0.77488,-0.41804 1.1314,-0.77456 z m -6.59104,-7.90963 c -0.28942,-0.4683 -2.40239,-0.81438 -3.48587,-0.57094 -2.01804,0.45344 -1.64452,0.72822 1.0411,0.7659 1.49679,0.021 2.52745,-0.0612 2.44477,-0.195 z M 4.82618,969.15728 c -0.51127,-0.64996 -0.52749,-0.9499 -0.52749,-9.75394 l 0,-9.08334 0.58905,-0.55336 c 0.57646,-0.54158 0.74446,-0.55336 7.8796,-0.55336 7.20922,0 7.29648,0.006 7.81828,0.56642 0.51697,0.55488 0.52625,0.757 0.45531,9.91478 -0.0698,9.0062 -0.091,9.36244 -0.58143,9.73278 -0.42588,0.32164 -1.70072,0.38572 -7.80742,0.39248 l -7.29844,0.008 -0.52746,-0.67056 z m 14.97028,-0.69688 c 0.20458,-0.2465 0.26998,-2.2898 0.22204,-6.93516 l -0.068,-6.5857 -7.18964,-0.0676 -7.18966,-0.0676 0,6.83308 c 0,3.75818 0.0764,6.90942 0.1696,7.00274 0.0934,0.0934 3.22873,0.1696 6.96762,0.1696 5.45294,0 6.8553,-0.0692 7.08796,-0.34944 z m -9.41332,-2.27894 c -1.65819,-0.87574 -2.64887,-2.59386 -2.62233,-4.54778 0.016,-1.2299 0.1554,-1.69158 0.7711,-2.56766 1.1588,-1.64878 2.40805,-2.25482 4.44791,-2.15784 1.3839,0.0658 1.8505,0.20826 2.6303,0.80304 2.40852,1.83708 2.80218,4.78858 0.9663,7.24518 -1.3234,1.77086 -4.1145,2.32294 -6.19328,1.22506 z m 4.09948,-0.99826 c 1.42268,-0.72112 2.13,-1.89802 2.13,-3.54408 0,-3.80852 -5.2284,-5.20514 -7.22529,-1.93 -0.68016,1.11554 -0.67658,3.09418 0.008,4.21638 0.54606,0.89564 2.21521,1.81526 3.31201,1.82474 0.35528,0.004 1.15432,-0.25208 1.77568,-0.56704 z m -2.70274,-0.2115 c -0.95524,-0.27714 -2.09053,-1.36118 -2.30013,-2.1963 -0.0842,-0.33562 -0.085,-1.03078 -0.002,-1.5448 0.43054,-2.6532 3.51537,-3.69314 5.55341,-1.87216 0.63172,0.56446 0.80942,0.95604 0.91032,2.0061 0.1624,1.68914 -0.5234,2.89112 -1.98232,3.47486 -1.13374,0.45364 -1.08286,0.45056 -2.1798,0.1322 z m -0.8175,-1.56152 c -0.36982,-0.3698 -0.39534,-2.09284 -0.0408,-2.75526 0.3006,-0.56172 1.0678,-1.0168 2.15742,-1.27976 0.69938,-0.1688 0.671,-0.1864 -0.33772,-0.2103 -2.19466,-0.052 -3.39971,2.31766 -2.1492,4.22616 0.21594,0.32956 0.45536,0.53646 0.53204,0.45976 0.0768,-0.0766 0.004,-0.27496 -0.1618,-0.4406 z m 9.11538,-11.11174 c 0,-0.95736 -0.1258,-1.60018 -0.34928,-1.78572 -0.24682,-0.20484 -2.356,-0.26998 -7.18966,-0.22204 l -6.84036,0.0678 -0.1292,1.28092 c -0.23692,2.35048 -0.89737,2.15484 7.2738,2.15484 l 7.23462,0 0,-1.49584 z M 6.5892,952.01278 c 0,-0.49486 0.12059,-0.52696 1.71789,-0.457 1.32388,0.058 1.71786,0.1628 1.71786,0.457 0,0.2942 -0.39398,0.39902 -1.71786,0.45702 -1.59724,0.07 -1.71789,0.0378 -1.71789,-0.45702 z m 9.41654,0 c 0,-0.3833 0.1328,-0.52072 0.44538,-0.46054 0.24496,0.0472 0.44538,0.25442 0.44538,0.46054 0,0.20614 -0.20042,0.41338 -0.44538,0.46056 -0.3125,0.0602 -0.44538,-0.0772 -0.44538,-0.46056 z m 1.90876,0.2545 c -0.21304,-0.34468 0.0744,-0.7635 0.52402,-0.7635 0.2017,0 0.36672,0.22906 0.36672,0.509 0,0.5269 -0.61398,0.70232 -0.89074,0.2545 z m 12.97955,16.49294 c -0.27994,-0.1588 -0.59314,-0.41294 -0.69598,-0.56488 -0.1028,-0.152 -0.187,-2.28044 -0.187,-4.73 0,-2.44958 0.084,-4.57978 0.187,-4.7338 0.5192,-0.77758 1.40182,-0.86524 8.71278,-0.86524 9.06948,0 8.8968,-0.0532 8.90362,2.7359 0.002,1.23336 0.0886,1.59062 0.3808,1.59062 0.56446,0 0.6677,-0.80492 0.58714,-4.57788 -0.0648,-3.0327 -0.1252,-3.44256 -0.51868,-3.51804 -0.34608,-0.0664 -0.44536,0.089 -0.44536,0.69674 0,0.44282 -0.22082,1.00298 -0.509,1.29116 -0.48712,0.4871 -0.84834,0.509 -8.39852,0.509 -9.60298,0 -8.90754,0.28504 -8.90754,-3.65082 0,-3.85862 -0.65092,-3.58492 8.75364,-3.68072 7.51394,-0.0766 7.69824,-0.0662 8.37224,0.46386 0.58034,0.45648 0.68918,0.73744 0.68918,1.77898 0,1.06132 0.0812,1.26166 0.57264,1.4114 1.40972,0.4296 1.46338,0.62114 1.46338,5.22528 l 0,4.2686 -0.67058,0.52746 c -0.36882,0.29012 -0.82694,0.5275 -1.01802,0.5275 -0.26762,0 -0.34742,0.52186 -0.34742,2.27202 0,3.49076 0.43318,3.3288 -8.87824,3.31924 -5.13664,-0.006 -7.6992,-0.0996 -8.04608,-0.29638 z m 6.99506,-2.23824 c 2.93666,-2.09108 1.3455,-6.87416 -2.28678,-6.87416 -3.93728,0 -5.23562,5.43576 -1.72598,7.2262 1.11976,0.57124 2.94046,0.41152 4.01276,-0.35204 z m -2.60556,-0.0664 c -0.0586,-0.175 -0.0242,-0.6846 0.0764,-1.13252 0.26462,-1.17722 0.02,-1.21548 -0.90888,-0.1418 -0.71326,0.8251 -0.87136,0.9023 -1.23318,0.602 -0.70132,-0.58204 -0.5025,-1.23178 0.47572,-1.55462 0.4899,-0.1616 0.89076,-0.43398 0.89076,-0.6051 0,-0.1858 -0.35854,-0.3111 -0.89076,-0.3111 -1.07278,0 -1.5095,-0.37314 -1.28062,-1.0942 0.2143,-0.67528 0.93628,-0.68734 1.53512,-0.0256 0.25336,0.27996 0.61468,0.50902 0.80296,0.50902 0.42304,0 0.42306,5.6e-4 -0.0218,-1.06396 -0.43026,-1.02974 -0.1938,-1.55886 0.64334,-1.4397 0.54184,0.0772 0.59532,0.1962 0.5244,1.16752 -0.0434,0.5949 0.008,1.08164 0.1128,1.08164 0.1054,0 0.48644,-0.35162 0.84658,-0.78134 0.74478,-0.88872 1.54554,-0.81852 1.54554,0.1356 0,0.42434 -0.20858,0.63204 -0.80716,0.8037 -1.0691,0.3066 -1.24972,0.86014 -0.28068,0.86014 0.96306,0 1.72852,0.56232 1.51672,1.11422 -0.26638,0.6942 -0.91788,0.77478 -1.53984,0.1904 -0.5024,-0.47198 -1.17954,-0.72746 -1.17954,-0.44504 0,0.053 0.157,0.48238 0.34868,0.9544 0.43172,1.06252 0.29418,1.49444 -0.47592,1.49444 -0.32662,0 -0.64186,-0.1432 -0.70052,-0.31812 z m 0.71422,-2.75806 c 0.26228,-0.42436 -0.32758,-0.91098 -0.67866,-0.5599 -0.29368,0.29368 -0.1098,0.83658 0.28322,0.83658 0.1234,0 0.3014,-0.1244 0.39544,-0.27668 z m -3.49538,-8.82174 0.0812,-0.57262 6.34484,0 6.3448,0 0,0.63626 c 0,0.5014 0.129,0.63624 0.60904,0.63624 0.33496,0 0.67854,-0.1812 0.7635,-0.40256 0.22616,-0.58936 0.1812,-3.99682 -0.0578,-4.37318 -0.159,-0.25044 -1.89724,-0.307 -7.822,-0.2545 l -7.61762,0.0676 -0.0746,2.14198 c -0.041,1.17808 -0.012,2.30274 0.0624,2.49924 0.21976,0.57266 1.27228,0.28114 1.36596,-0.37834 z m 12.43694,-2.51848 c -0.39206,-0.39206 -0.1648,-1.10816 0.35174,-1.10816 0.39588,0 0.5065,0.1372 0.44536,0.5527 -0.0844,0.57398 -0.49352,0.85902 -0.7971,0.55546 z m -2.211,-0.57794 c 0,-0.2683 0.1432,-0.53774 0.31814,-0.59876 0.52266,-0.1824 0.95438,0.0912 0.95438,0.60478 0,0.34422 -0.1816,0.48178 -0.63626,0.48178 -0.45734,0 -0.63626,-0.1372 -0.63626,-0.4878 z m 14.63382,16.98074 c -0.27994,-0.1588 -0.59314,-0.41294 -0.69596,-0.56488 -0.1028,-0.152 -0.1888,-4.23828 -0.1908,-9.08072 -0.004,-8.20924 0.0276,-8.83294 0.46154,-9.22566 0.41422,-0.37488 1.43572,-0.4212 9.28927,-0.4212 8.48454,0 8.84344,0.02 9.33288,0.509 0.48896,0.48896 0.509,0.84834 0.509,9.12772 0,8.33396 -0.018,8.64086 -0.52748,9.28928 l -0.52746,0.67058 -8.57094,-0.008 c -5.90753,-0.006 -8.72913,-0.0974 -9.07995,-0.29638 z m 17.44961,-1.24922 c 0.27028,-0.43734 0.29544,-16.28746 0.0266,-16.7106 -0.1594,-0.2509 -2.07536,-0.30684 -8.71299,-0.2545 l -8.5086,0.067 -0.0674,8.39852 c -0.0552,6.86394 -0.004,8.44504 0.28018,8.65304 0.21722,0.159 3.42906,0.24124 8.56075,0.21916 6.5169,-0.028 8.25616,-0.105 8.42162,-0.37276 z m -8.74535,-0.64354 c -0.32912,-0.32912 -0.1828,-1.05554 0.24585,-1.22 0.53638,-0.20584 0.92308,0.1678 0.8055,0.77828 -0.0934,0.48526 -0.73732,0.75576 -1.05135,0.44172 z m 2.10145,-0.23366 c -0.27048,-0.3259 -0.25378,-0.46818 0.096,-0.81804 0.39502,-0.39502 0.452,-0.39502 0.84702,0 0.34986,0.34986 0.36658,0.49214 0.096,0.81804 -0.18,0.21698 -0.41388,0.39454 -0.51958,0.39454 -0.1058,0 -0.33952,-0.1776 -0.5196,-0.39454 z m 2.21628,0.22486 c -0.26724,-0.26722 -0.198,-1.05524 0.1092,-1.24518 0.40642,-0.2512 1.04058,0.4872 0.84846,0.9879 -0.1668,0.43446 -0.65056,0.56444 -0.9577,0.25728 z m 2.04478,0.008 c -0.25518,-0.2552 -0.22048,-1.05562 0.0532,-1.2247 0.4471,-0.27632 1.06868,0.1726 0.99082,0.71548 -0.0772,0.53784 -0.70768,0.84544 -1.04388,0.50922 z m -11.62337,-0.92822 c -0.87634,-0.44344 -1.78932,-1.88818 -1.78818,-2.8297 0.002,-1.6377 1.59598,-3.20724 3.25728,-3.20724 0.89172,0 2.33626,0.92534 2.793,1.78914 0.1936,0.36628 0.28532,1.10294 0.21964,1.76512 -0.21518,2.16972 -2.54722,3.46156 -4.48174,2.48268 z m 7.83093,-2.23124 c -0.66986,-0.66988 -0.7549,-0.90346 -0.62526,-1.71788 0.1734,-1.0894 1.16724,-2.08782 2.07822,-2.08782 2.16152,0 3.2568,2.50786 1.71824,3.93446 -0.99002,0.918 -2.17244,0.87 -3.1712,-0.1288 z m -7.96581,-5.63822 c -1.91772,-1.0927 -2.15674,-4.03526 -0.42706,-5.25758 2.85054,-2.01442 6.34399,0.96058 4.74926,4.04442 -0.68614,1.32682 -2.98856,1.97308 -4.3222,1.21316 z m 7.34697,-0.60336 c -2.74599,-2.91158 1.3619,-7.20784 4.29058,-4.48734 1.49432,1.3881 1.45342,3.44932 -0.0942,4.75162 -0.59868,0.50376 -1.04716,0.6446 -2.0526,0.6446 -1.14556,0 -1.38048,-0.0996 -2.14372,-0.90888 z m 16.57612,11.41486 c -0.27994,-0.0682 -0.70942,-0.30172 -0.9544,-0.51892 -0.40804,-0.36182 -0.44534,-1.13644 -0.44534,-9.24454 l 0,-8.84962 0.67056,-0.52748 c 0.648,-0.50972 0.95668,-0.52746 9.17362,-0.52746 l 8.50302,0 0.6342,0.6342 0.6342,0.6342 -0.0732,8.80506 -0.0732,8.80506 -0.60082,0.48628 c -0.56542,0.45762 -1.08294,0.48454 -8.78028,0.45676 -4.4987,-0.016 -8.40852,-0.0854 -8.68846,-0.1536 z m 16.96926,-1.51106 c 0.0452,-0.2319 0.0498,-3.1523 0.01,-6.48978 l -0.0724,-6.06816 -8.64422,0 -8.6442,0 0,6.3201 c 0,3.47606 0.0764,6.39646 0.1696,6.48978 0.0934,0.0934 3.97878,0.1696 8.63436,0.1696 7.67712,0 8.47236,-0.0392 8.547,-0.4216 z m -14.86962,-1.05714 -0.95438,-0.079 0,-5.07862 0,-5.07862 7.18964,0.0676 7.18966,0.0676 0.069,5.01786 0.069,5.01784 -6.30424,0.0722 c -3.46734,0.0396 -6.73372,0.0366 -7.25864,-0.006 z m 1.13308,-5.148 c 0.0734,-3.9578 0.0604,-4.0795 -0.4332,-4.00838 -0.4809,0.0692 -0.51288,0.29474 -0.5791,4.08172 -0.0672,3.84726 -0.0498,4.0084 0.43322,4.0084 0.47734,0 0.50722,-0.2106 0.57908,-4.08174 z m 13.6916,-9.1557 0,-1.53038 -8.58942,0.067 -8.5894,0.067 -0.0764,1.46338 -0.0764,1.46338 8.66574,0 8.66574,0 0,-1.53038 z m -11.51168,0.1472 c -0.1966,-1.02846 0.0978,-1.19264 1.99068,-1.11064 l 1.75872,0.0762 0.0798,0.82714 0.0798,0.82712 -1.89522,0 c -1.80604,0 -1.9008,-0.0292 -2.0137,-0.6198 z m -4.35222,0.1956 c -0.37288,-0.37288 -0.1582,-1.10284 0.32432,-1.10284 0.64962,0 0.89968,0.4381 0.51478,0.9019 -0.336,0.40484 -0.57738,0.46264 -0.8391,0.20094 z m 2.14738,-0.0634 c -0.49664,-0.31414 -0.1532,-1.03956 0.49218,-1.03956 0.40408,0 0.51482,0.135 0.45336,0.5527 -0.0934,0.6347 -0.4343,0.81024 -0.94554,0.48686 z m 7.19218,-0.1472 c -0.0882,-0.22972 -0.0382,-0.5397 0.111,-0.68886 0.38774,-0.38776 1.12244,-0.0334 1.02116,0.49258 -0.1128,0.58584 -0.92834,0.72722 -1.13208,0.1962 z m 2.2686,0.0946 c -0.3873,-0.38732 -0.121,-0.987 0.43822,-0.987 0.55926,0 0.82552,0.59968 0.43822,0.987 -0.157,0.157 -0.35424,0.28552 -0.43822,0.28552 -0.084,0 -0.28118,-0.1284 -0.43822,-0.28552 z m 2.05792,-0.0946 c -0.0882,-0.22972 -0.0382,-0.5397 0.111,-0.68886 0.38774,-0.38776 1.12244,-0.0334 1.02116,0.49258 -0.1128,0.58584 -0.92834,0.72722 -1.13208,0.1962 z"
       id="path4162"
       inkscape:connector-curvature="0" />
  </g>
</svg>
