<?xml version="1.0" encoding="UTF-8" standalone="no"?>
<!-- Created with Inkscape (http://www.inkscape.org/) -->
<svg id="svg2" xmlns:rdf="http://www.w3.org/1999/02/22-rdf-syntax-ns#" xmlns="http://www.w3.org/2000/svg" height="106" width="106" version="1.1" xmlns:cc="http://creativecommons.org/ns#" xmlns:dc="http://purl.org/dc/elements/1.1/" viewBox="0 0 106 106">
 <metadata id="metadata7">
  <rdf:RDF>
   <cc:Work rdf:about="">
    <dc:format>image/svg+xml</dc:format>
    <dc:type rdf:resource="http://purl.org/dc/dcmitype/StillImage"/>
    <dc:title/>
   </cc:Work>
  </rdf:RDF>
 </metadata>
 <g id="layer1" transform="translate(0 -946.36)">
  <path id="path4162" opacity="0.118" d="m3.5353 1048.5c0-1.1176 0.30934-1.4754 1.383-1.5992 1.0485-0.121 1.1439-0.6827 1.1728-6.9001 0.018-3.7711 0.1284-5.6465 0.38422-6.497 0.38645-1.2849 1.4828-2.6234 2.6382-3.2209 1.1057-0.5717 3.5432-0.8759 5.0698-0.6326 3.5979 0.5735 5.3183 2.6466 5.3562 6.4542 0.006 0.6883 0.1308 1.3697 0.2754 1.5143s0.26294 0.4691 0.26294 0.7211c0 0.2857 0.1882 0.4581 0.50004 0.4581 0.75365 0 1.027 0.7801 1.027 2.9312 0 1.458-0.0798 1.9136-0.31812 1.8148-1.6722-0.6935-2.2237-0.7444-3.3606-0.3102-2.1411 0.8177-3.0209 3.1808-1.9495 5.2363l0.54334 1.0424-1.4659-0.076-1.466-0.076-0.0698-3.9615c-0.0664-3.7637-0.0408-4.0051 0.51236-4.8355 0.32022-0.4807 1.0102-1.0838 1.5332-1.3403 0.69774-0.3422 0.95102-0.6262 0.95102-1.0666 0-0.3302 0.1146-0.6711 0.2545-0.7576 0.37806-0.2337 0.308-2.3061-0.112-3.3111-0.5576-1.3345-1.7044-1.9043-3.8328-1.9043-2.1126 0-3.1332 0.5007-3.7743 1.8517-0.35528 0.7487-0.425 1.7766-0.425 6.2653 0 3.4101 0.0928 5.3697 0.2545 5.3697 0.14 0 0.2545 0.2863 0.2545 0.6362 0 0.5502 0.1136 0.6363 0.83984 0.6363 1.0917 0 1.4507 0.3904 1.4507 1.5779v0.9671h-3.9448-3.9448v-0.9869zm4.3307-8.4933c0.004-5.3902 0.0316-5.7116 0.57486-6.6806 0.79664-1.4211 2.1138-2.0324 4.3837-2.0344 3.2073 0 4.7189 1.3354 4.9628 4.3937 0.1742 2.1833 0.62068 2.1395 0.7013-0.069 0.0876-2.4017-0.532-3.5342-2.4828-4.5371-1.2667-0.6513-1.5943-0.7103-3.4462-0.6211-2.5294 0.122-4.0173 0.8418-4.8768 2.3595-0.55244 0.9754-0.57632 1.2607-0.58034 6.9344-0.004 5.0919 0.049 5.9171 0.37758 5.9171 0.32776 0 0.38234-0.8007 0.38594-5.6626zm9.418 8.7228c-1.8364-1.9659-0.61438-4.8379 2.0596-4.8407 1.8407 0 3.0862 1.7584 2.5382 3.5874-0.59818 1.9966-3.2327 2.7147-4.5978 1.2533zm2.7439-1.946c0.0546-0.5612-0.0494-0.8433-0.354-0.9602-0.69596-0.267-1.3776 0.081-1.3776 0.7031 0 1.3733 1.5999 1.6108 1.7316 0.2571zm36.316 2.4061c-1.2726-0.7387-1.2216-2.0478 0.1658-4.2562 0.58114-0.925 1.1824-1.7659 1.3361-1.8688 0.1538-0.1028 0.76624-0.1888 1.3612-0.1908 0.91064 0 1.0816-0.084 1.0816-0.5129 0-0.4465-0.1696-0.509-1.3816-0.509-1.4778 0-2.0675-0.3481-2.3245-1.3722-0.0792-0.3152-0.108-2.7226-0.064-5.3497 0.0784-4.6961 0.0902-4.785 0.69332-5.2729 0.58334-0.4718 1.0001-0.4926 8.4829-0.4223 7.45 0.07 7.8887 0.1002 8.2304 0.5679 0.28326 0.3876 0.36098 1.5946 0.36098 5.606 0 6.1377-0.0368 6.2432-2.1777 6.2432-1.2156 0-1.3853 0.062-1.3853 0.509 0 0.434 0.1696 0.509 1.1504 0.509 1.1468 0 1.154 0.01 2.324 1.8142 1.3138 2.0309 1.5705 3.4299 0.7753 4.2256-0.41024 0.4105-1.2248 0.4555-9.2848 0.5127-6.3469 0.045-8.9785-0.021-9.3441-0.2327zm16.449-3.8384c-0.42428-0.7348-0.89182-1.3246-1.039-1.3106-0.1472 0.014-3.1594 0.044-6.6938 0.067l-6.4261 0.042-0.6998 1.2688-0.6998 1.2688h8.165 8.165l-0.77142-1.3361zm-0.1614-9.6074v-4.4537l-7.1896-0.068-7.1896-0.068v4.5889 4.589l7.1896-0.068 7.1896-0.068v-4.4538zm-13.758 3.7422c-0.0696-0.1814-0.0946-1.9852-0.0556-4.0084l0.071-3.6785 6.5534-0.068 6.5534-0.068v4.0763 4.0763h-6.4978c-5.0864 0-6.5253-0.072-6.6243-0.3298zm2.1785-3.8694c0-2.7571-0.0296-2.9268-0.509-2.9268-0.4795 0-0.50902 0.1696-0.50902 2.9268 0 2.7571 0.0296 2.9267 0.50902 2.9267 0.4795 0 0.509-0.1696 0.509-2.9267zm22.192 13.565c-0.1828-0.1828-0.3054-1.0651-0.3054-2.1968 0-1.8368 0.0262-1.9161 0.90278-2.7429 0.75414-0.7112 0.8589-0.9334 0.63626-1.3495-0.1466-0.2739-0.26654-1.1927-0.26654-2.0417v-1.5437h2.9268c1.7815 0 2.9267 0.1 2.9267 0.2544 0 0.14 0.27694 0.2546 0.61546 0.2546 1.1362 0 1.4206 0.2539 1.4206 1.2685 0 1.0952-0.31508 1.4496-1.3976 1.5721-0.4626 0.052-0.7929 0.2526-0.84174 0.5105-0.071 0.375 0.20966 0.4194 2.4156 0.3817l2.496-0.043 0.0716-2.9904 0.0716-2.9904h-2.9171c-2.8314 0-2.9195 0.016-2.9985 0.5727-0.0446 0.3149-0.2531 0.5726-0.46308 0.5726-0.20994 0-0.49478-0.2577-0.63296-0.5726-0.1382-0.315-0.3687-0.5727-0.51228-0.5727-0.1436 0-0.3741 0.2577-0.51228 0.5727-0.1382 0.3149-0.42302 0.5726-0.63298 0.5726s-0.49478-0.2577-0.63296-0.5726c-0.185-0.4218-0.46526-0.5727-1.0635-0.5727-1.3679 0-1.6121-0.4874-1.6121-3.219 0-2.3344 0.026-2.4452 0.74392-3.1631l0.74392-0.7439h9.0607 9.0607l0.26056 0.6853c0.30896 0.8127 0.21866 17.596-0.0974 18.084-0.29158 0.4505-19.017 0.4627-19.467 0.012zm18.528-2.6214v-1.9087h-8.5114c-8.5069 0-8.5115 0.0002-8.9075 0.5656-0.39284 0.5609-0.55408 2.7547-0.22652 3.0822 0.0934 0.093 4.1017 0.1696 8.9075 0.1696h8.7379v-1.9087zm-15.761-3.5973c-0.36946-0.4697-0.52746-1.0415-0.52746-1.9088 0-0.681-0.1146-1.2381-0.2545-1.2381-0.36752 0-0.31366 2.6276 0.0636 3.1033 0.26312 0.3317 0.66666 0.5724 1.1637 0.6941 0.0452 0.012-0.1552-0.2817-0.44536-0.6505zm15.761-5.4375v-6.108h-8.3985c-9.9901 0-9.4166-0.1782-9.4166 2.9268v1.9087h5.9808 5.9808v3.6903 3.6903h2.9268 2.9268v-6.1081zm-4.4883-0.1256c-0.0882-0.2297-0.0382-0.5397 0.111-0.6888 0.38776-0.3878 1.1224-0.033 1.0212 0.4926-0.1128 0.5858-0.92834 0.7272-1.1321 0.1962zm1.9892-0.19c0.0974-0.6826 0.8422-0.899 1.0681-0.3102 0.21488 0.5599-0.018 0.8803-0.63776 0.8803-0.3845 0-0.49146-0.1418-0.43036-0.5701zm-1.973-1.5491c-0.0766-0.1998-0.104-0.9213-0.0604-1.6034l0.0788-1.2402 1.2287-0.078c1.659-0.1058 1.9952 0.2192 1.9009 1.8373l-0.0756 1.2951-1.4664 0.076c-1.0886 0.057-1.5024-0.018-1.6059-0.2868zm-5.9625 5.401c0-0.3899-0.1398-0.4977-0.56646-0.4364-0.51002 0.073-0.65946 0.4976-0.47982 1.3628 0.0782 0.3764 1.0463-0.4807 1.0463-0.9264zm-60.826 7.6617c-0.47592-0.4759-0.509-0.8483-0.509-5.7263 0-4.8779 0.033-5.2503 0.509-5.7262 0.31508-0.3151 0.84832-0.509 1.3997-0.509 0.78048 0 0.89076-0.079 0.89076-0.6363 0-0.3499-0.1174-0.6362-0.2608-0.6362-0.49602 0-0.78968-1.2938-0.49576-2.1843 0.67506-2.0454 6.166-2.974 11.135-1.8829 1.9275 0.4232 2.8557 1.2792 2.8557 2.6335 0 0.7511-0.1504 1.1948-0.509 1.5019-0.85016 0.7279-0.64882 1.2043 0.509 1.2043 1.608 0 2.036 0.6117 2.036 2.9098 0 1.8747 0.006 1.8926 0.69988 1.9724 0.59008 0.068 0.69988 0.2003 0.69988 0.844 0 0.6438-0.1098 0.7762-0.69988 0.8441l-0.69988 0.081v2.4008c0 3.6688 0.66056 3.4189-9.0348 3.4189-7.6775 0-8.0383-0.022-8.5258-0.509zm16.14-0.6635c0.34724-0.1332 0.40258-0.8085 0.40258-4.9118 0-3.3609-0.0896-4.8471-0.30542-5.0628-0.22334-0.2234-2.2689-0.3054-7.6142-0.3054-4.0199 0-7.49 0.07-7.7114 0.1544-0.34786 0.1336-0.40256 0.8223-0.40256 5.0688 0 3.6933 0.079 4.9462 0.31812 5.0427 0.45876 0.1852 14.833 0.1984 15.313 0.014zm12.892-25.966c-0.60404-0.7679-0.70174-2.406-0.20238-3.3928 0.179-0.3538 0.67712-0.7308 1.1415-0.864 1.1199-0.3212 1.0476-0.8288-0.32136-2.2574l-1.1452-1.1952v-3.1426c0-2.8107 0.0548-3.2013 0.5189-3.6995 0.28542-0.3063 0.61658-0.557 0.73592-0.557 0.1194 0 0.28694-0.2786 0.37244-0.6193 0.29822-1.1883 2.4447-1.1989 2.4447-0.012 0 0.907 0.66802 0.795 1.1672-0.1958 0.70344-1.396 1.9164-2.4704 3.229-2.8602 1.6698-0.4959 4.3716-0.3329 5.2466 0.3165 1.1885 0.8821 1.293 1.3947 1.297 6.3613 0.006 6.1366 0.50042 5.662-5.9134 5.6646h-4.8992l-0.31812 0.685c-0.47452 1.0217-0.39644 1.2677 0.45664 1.4383 0.9688 0.1938 1.4898 1.3321 1.356 2.9627-0.1336 1.6277-0.71594 2.036-2.904 2.036-1.5711 0-1.7846-0.063-2.2623-0.6705zm1.763-1.7472c0-1.2301-0.0618-1.3997-0.50902-1.3997-0.4388 0-0.509 0.1696-0.509 1.2301 0 1.2912 0.1202 1.5694 0.67866 1.5694 0.24166 0 0.33936-0.403 0.33936-1.3998zm2.2402-0.066c0.0692-1.2003 0.0246-1.3337-0.44536-1.3337-0.46426 0-0.5223 0.1576-0.5223 1.4184 0 1.2135 0.0644 1.4062 0.44536 1.3338 0.34424-0.065 0.46286-0.3876 0.5223-1.4185zm9.1939-6.0197c0.1794-0.2163 0.26794-1.0024 0.22204-1.9724l-0.0764-1.6129-3.563-0.1272-3.563-0.1272-0.0844-0.8897c-0.0464-0.4894-0.2036-1.0334-0.34926-1.2089-0.3272-0.3942-4.6752-0.4459-4.9147-0.058-0.0886 0.1434-0.1612 1.5343-0.1612 3.091 0 2.0714 0.0904 2.8875 0.33698 3.0439 0.1854 0.1176 2.9284 0.2154 6.0957 0.2176 4.6537 0 5.816-0.065 6.0571-0.3557zm-11.689-1.422c0-0.4605 0.1696-0.509 1.7815-0.509 1.6118 0 1.7815 0.049 1.7815 0.509 0 0.4605-0.1696 0.509-1.7815 0.509-1.6118 0-1.7815-0.049-1.7815-0.509zm0.1804-1.1769c-0.0992-0.099-0.1804-0.3332-0.1804-0.5198 0-0.2508 0.4697-0.3393 1.8002-0.3393 1.5771 0 1.7897 0.055 1.7153 0.4453-0.0676 0.3552-0.39584 0.4605-1.6197 0.5198-0.8442 0.041-1.6161-0.01-1.7153-0.106zm-0.0332-1.5602c-0.081-0.081-0.1474-0.3-0.1474-0.4866 0-0.2508 0.4697-0.3393 1.8002-0.3393 1.5774 0 1.7896 0.055 1.7146 0.4453-0.0692 0.3611-0.38222 0.4532-1.6529 0.4867-0.86204 0.023-1.6336-0.025-1.7147-0.106zm10.542-2.4293c0-1.1057-0.1236-1.9815-0.30542-2.1632-0.41208-0.4121-2.5694-0.3871-3.5955 0.042-1.1007 0.4599-1.8059 1.521-1.4511 2.1838 0.1442 0.2693 0.26206 0.7835 0.26206 1.1427v0.653h2.545 2.545v-1.8579zm-65.601 14.323c-0.82554-0.337-0.97004-0.926-1.3097-5.3389-0.51919-6.7463-0.52521-6.782-1.2017-7.144-0.79796-0.4271-0.84652-2.1483-0.0878-3.1129 0.63762-0.8106 2.8626-1.6665 4.8805-1.8774 1.263-0.132 1.5682-0.2597 1.7913-0.7493 0.3436-0.7541 1.7181-1.2092 3.1612-1.0465 1.1228 0.1266 2.1227 0.7557 2.1227 1.3355 0 0.186 0.58796 0.3675 1.4993 0.4627 1.8704 0.1956 4.2626 1.0735 5.0382 1.8492 0.8357 0.8357 0.81812 2.4301-0.0342 3.1005-0.5934 0.4668-0.64162 0.7223-1.0246 5.4267-0.22104 2.7152-0.46133 5.3087-0.53397 5.7632-0.2313 1.4474-0.77024 1.5577-7.636 1.5623-3.349 0-6.3484-0.1018-6.6654-0.2311zm13.186-1.3305c0.006-0.175 0.21128-2.6373 0.45438-5.4718l0.44202-5.1536-1.2815-0.021c-2.8194-0.047-13.449 0.016-13.493 0.08-0.0262 0.038 0.1564 2.3589 0.40576 5.1584 0.24944 2.7995 0.45964 5.2332 0.4671 5.4082 0.01 0.2458 1.4884 0.3181 6.5034 0.3181 5.0155 0 6.4926-0.072 6.5021-0.3181zm-9.143-5.1158c-0.28184-0.3396-0.37368-3.6884-0.125-4.5553 0.111-0.3871 0.47129-0.4453 2.7557-0.4453 2.1615 0 2.6553 0.071 2.7824 0.4025 0.28392 0.7399 0.1674 4.3182-0.151 4.6366-0.44586 0.4459-4.8872 0.4134-5.2622-0.038zm2.0046-2.3284c0-1.4845-0.0522-1.6542-0.509-1.6542-0.45174 0-0.509 0.1696-0.509 1.5083 0 1.2225 0.0844 1.5304 0.44538 1.6248 0.24494 0.064 0.474 0.1296 0.509 0.1458 0.035 0.016 0.0636-0.7149 0.0636-1.6248zm-3.8936 2.2569c-0.0982-0.098-0.1784-0.3964-0.1784-0.6627 0-0.3567 0.151-0.4629 0.57264-0.403 0.37434 0.053 0.57262 0.2564 0.57262 0.5869 0 0.5048-0.62918 0.8164-0.9668 0.4788zm8.0583-0.2192c-0.0882-0.2297-0.0382-0.5397 0.111-0.6888 0.38778-0.3878 1.1225-0.033 1.0212 0.4926-0.1128 0.5858-0.92834 0.7272-1.1321 0.1962zm-8.067-1.5711c-0.37288-0.3729-0.1582-1.1028 0.3243-1.1028 0.59966 0 0.83334 0.3245 0.62488 0.8678-0.1594 0.4155-0.64778 0.5364-0.94918 0.235zm8.067-0.2104c-0.0882-0.2297-0.0382-0.5397 0.111-0.6888 0.38778-0.3878 1.1225-0.033 1.0212 0.4926-0.1128 0.5858-0.92834 0.7272-1.1321 0.1962zm-8.067-1.5711c-0.37288-0.3729-0.1582-1.1028 0.3243-1.1028 0.64964 0 0.89968 0.4381 0.51478 0.9019-0.336 0.4048-0.57738 0.4626-0.83908 0.2009zm8.2554-0.063c-0.49664-0.3141-0.1532-1.0395 0.49216-1.0395 0.40408 0 0.51484 0.135 0.45336 0.5527-0.0934 0.6347-0.43428 0.8102-0.94552 0.4868zm4.9362-3.9388c0-1.7697-3.2665-2.5651-9.7967-2.3858-5.5887 0.1536-7.6367 0.8315-7.6367 2.5283v0.7274l8.7167-0.067 8.7166-0.067v-0.736zm8.438 13.886c-0.54846-0.6061-0.56448-3.1005-0.0272-4.2328 0.2167-0.4567 0.6802-0.9607 1.03-1.1201 0.40594-0.185 2.4266-0.2897 5.5867-0.2897h4.9508v-2.7723c0-3.0983 0.008-3.0842-1.8659-3.0773-1.2418 0-1.4746 0.1374-1.8877 1.0777-0.1692 0.3849-0.45806 0.6999-0.64208 0.6999-0.184 0-0.44414 0.3722-0.57808 0.8271-0.21026 0.7142-0.37048 0.8377-1.1738 0.9047-0.75038 0.063-0.96132 0.2011-1.0907 0.7168-0.1996 0.7953-0.99692 0.7259-1.1143-0.097-0.065-0.456-0.24586-0.5701-0.90346-0.5701-0.96906 0-1.433-0.3872-1.433-1.1961 0-0.3444-0.1534-0.5854-0.3728-0.5854-0.68422 0-0.89974-0.9601-0.89596-3.9916 0.006-5.3036-0.32852-5.1449 10.851-5.1378 7.2674 0 8.5448 0.061 8.8774 0.3939 0.31434 0.3144 0.37492 0.979 0.31728 3.4804-0.0674 2.9291-0.1014 3.1051-0.6439 3.3431-0.54506 0.2391-0.57262 0.3892-0.57262 3.1176 0 1.5943 0.1048 2.8664 0.23634 2.8664 0.13 0 0.41628 0.18 0.63624 0.4 0.30338 0.3033 0.39994 0.9442 0.39994 2.654 0 1.7099-0.0966 2.3508-0.39994 2.6541-0.34886 0.3489-1.5785 0.4-9.6316 0.4-8.6203 0-9.2596-0.031-9.6529-0.4655zm18.412-3.0976v-1.2725h-8.4749c-6.2523 0-8.555 0.08-8.7803 0.3054-0.168 0.168-0.3054 0.7406-0.3054 1.2725v0.9671h8.7803 8.7803v-1.2725zm-1.2725-3.054c0-0.4713-0.1696-0.509-2.2905-0.509-2.1208 0-2.2905 0.038-2.2905 0.509 0 0.4713 0.1696 0.509 2.2905 0.509 2.1208 0 2.2905-0.038 2.2905-0.509zm0-4.072c0-2.2736 0.004-2.2905 0.63626-2.2905 0.62826 0 0.63624-0.027 0.63624-2.1425 0-1.1783 0.0696-2.3236 0.1544-2.545 0.139-0.3621-0.69412-0.4026-8.288-0.4026-5.3329 0-8.6238 0.097-8.9348 0.2635-0.44626 0.2388-0.49226 0.5599-0.49226 3.4358v3.1723h2.9268 2.9268l0.0302-0.6999c0.016-0.385 0.016-0.7858 0-0.8908s1.2869-0.1908 2.8966-0.1908h2.9268v2.2905 2.2905h2.2905 2.2905v-2.2905zm-9.671-4.8083c0-1.6215 0.158-1.8088 1.527-1.8088 1.3689 0 1.527 0.1872 1.527 1.8088v1.4997h-1.527-1.527v-1.4997zm3.8175 0.9828c0-0.6154 0.7279-0.9704 1.0201-0.4976 0.29912 0.484 0.018 1.0145-0.53836 1.0145-0.3146 0-0.48178-0.1794-0.48178-0.5169zm0.31814-1.4435c-0.39228-0.1454-0.41944-1.0009-0.0392-1.2359 0.1534-0.095 0.46426 0.012 0.69078 0.2395 0.36112 0.3611 0.36594 0.4551 0.0392 0.7631-0.20496 0.1932-0.51582 0.2981-0.69078 0.2333zm41.675 12.78v-0.8939h9.4327 9.4327l-0.0798 0.8271-0.0798 0.8271-9.3529 0.067-9.3529 0.067v-0.8939zm0.42102-2.1029c-0.1264-0.2045 3.114-9.2135 3.771-10.484 0.59672-1.154 1.6195-1.9791 2.8313-2.2843 1.2812-0.3226 7.9654-0.3648 8.4565-0.053 0.2027 0.1286 0.30412 0.5581 0.2545 1.0777l-0.0824 0.8641-3.9448 0.1272c-4.0918 0.132-4.7274 0.287-5.4587 1.3311-0.56706 0.8096-0.49828 0.9594 0.44014 0.9594 0.69402 0 0.8836-0.1288 1.1231-0.7635 0.2457-0.6509 0.42148-0.7635 1.1921-0.7635 0.91068 0 1.6466 0.7174 1.3042 1.2714-0.0924 0.1494 1.447 0.2699 3.9966 0.3129l4.1467 0.07 0.0698 4.2629 0.0698 4.2629h-9.0259c-4.9643 0-9.079-0.086-9.1439-0.191zm17.14-3.372v-2.545h-6.7443c-3.7094 0-6.7443 0.029-6.7444 0.064-0.00004 0.035-0.39918 1.1802-0.88702 2.545l-0.88698 2.4814h7.6313 7.6313v-2.545zm-3.4176 0.8725c-0.8421-0.8421-0.33686-2.145 0.83182-2.145 1.2141 0 1.7238 1.4651 0.74764 2.1488-0.7143 0.5003-1.0762 0.4994-1.5795 0zm-62.833-18.83c-0.27654-0.27652-0.1934-1.2317 0.1358-1.5609 0.168-0.168 0.68332-0.3054 1.1452-0.3054 0.76352 0 0.83986-0.0694 0.83986-0.7635v-0.76352h-2.9168c-4.2323 0-3.9547 0.55454-3.9547-7.8981 0-6.3154 0.033-6.814 0.47822-7.2169 0.43146-0.39046 1.3463-0.43166 9.3529-0.42128 8.7852 0.012 8.8793 0.018 9.3315 0.56294 0.41876 0.50546 0.45058 1.1198 0.38176 7.37-0.0906 8.2217 0.24194 7.5833-3.9562 7.5952l-2.8631 0.008v0.76352c0 0.70378 0.0702 0.7635 0.89622 0.7635 0.70272 0 0.9572 0.1338 1.1787 0.62002 0.61834 1.3571 0.41244 1.416-4.9513 1.416-2.7106 0-5.0047-0.0764-5.098-0.1696zm13.772-10.774c0.0394-3.2894 0.008-6.2384-0.0684-6.5534l-0.1402-0.57262h-8.4937c-7.5104 0-8.5116 0.0466-8.6482 0.40256-0.21316 0.55552-0.1958 12.451 0.018 12.665 0.0952 0.0952 4.0176 0.1428 8.7166 0.106l8.5436-0.067 0.0718-5.9808zm-16.568 5.433c-0.0954-0.0954-0.1732-2.776-0.1732-5.9572 0-5.0394 0.0518-5.8038 0.40258-5.9384 0.60614-0.2326 14.945-0.178 15.318 0.0584 0.24904 0.158 0.30732 1.5419 0.2545 6.0405l-0.0686 5.8355-7.7799 0.0672c-4.279 0.037-7.8579-0.01-7.9532-0.106zm2.1172-5.7723c0-2.7062-0.0684-4.9888-0.1522-5.0725-0.0836-0.0836-0.31272-0.0906-0.509-0.016-0.28918 0.111-0.35686 1.0731-0.35686 5.0725 0 4.7659 0.018 4.9355 0.50898 4.9355 0.49146 0 0.509-0.1696 0.509-4.9203zm25.45 10.265v-1.018h6.4625c7.0173 0 6.7715-0.0516 6.7715 1.4206v0.61544h-6.617-6.617v-1.018zm26.502 0.36652c-0.4901-0.62304-0.513-1.0274-0.52464-9.2586-0.012-8.3168 0.006-8.6296 0.51246-9.2741l0.52464-0.66694h6.5985c6.2517 0 6.6252 0.0266 7.1058 0.50726 0.48766 0.48766 0.50698 0.85184 0.5003 9.4252-0.006 8.522-0.0292 8.9402-0.50726 9.4183-0.47168 0.4717-0.87784 0.50032-7.0989 0.50032h-6.5985l-0.51246-0.65148zm13.4-0.58172c0.24224-0.1538 0.30812-0.95978 0.2545-3.1137l-0.0724-2.9063h-6.3625-6.3625l-0.0726 2.7832c-0.04 1.5307-0.014 2.9337 0.0556 3.1176 0.1012 0.26348 1.413 0.33366 6.1807 0.33058 3.3288-0.002 6.1995-0.0972 6.3793-0.2113zm-11.6-3.0089c0.0588-1.5688 0.156-1.9932 0.45648-1.9932 0.30534 0 0.38174 0.38138 0.38174 1.9053 0 1.6298-0.066 1.918-0.45646 1.9932-0.41252 0.0794-0.44926-0.104-0.38176-1.9053zm11.506-4.3109c0.3479-0.1336 0.40256-0.82348 0.40256-5.0815v-4.927l-6.3871-0.0722c-3.5129-0.0396-6.4425 0.018-6.5103 0.1276-0.1652 0.26784-0.0994 9.6192 0.0696 9.8926 0.15 0.24282 11.802 0.29952 12.425 0.0604zm-11.604-3.5843c-0.045-0.39325-0.0424-1.3226 0.006-2.0651 0.0712-1.0925 0.1684-1.3346 0.509-1.269 0.62944 0.1212 0.6238 3.8456-0.006 3.9669-0.30428 0.0586-0.45058-0.1232-0.509-0.63278zm3.7115-2.2129c-0.0744-0.194-0.0994-0.85246-0.0556-1.4634l0.0796-1.1107h1.6543 1.6543l0.0764 1.4634 0.0764 1.4634h-1.675c-1.1926 0-1.7139-0.1016-1.8103-0.35264zm0.9148-1.0471c0-0.6299-0.1146-1.1453-0.25452-1.1453-0.28106 0-0.35508 1.8506-0.0848 2.1208 0.30072 0.3007 0.33936 0.1896 0.33936-0.97558zm-87.999 13.18c-0.178-0.0716-0.4961-0.46398-0.7071-0.872-0.31292-0.60512-0.37924-1.8754-0.35984-6.8932 0.0266-6.8708 0.1328-7.4012 1.5384-7.6823 1.3846-0.27694 16.124-0.1848 16.958 0.106 1.2444 0.43378 1.3456 0.9955 1.3456 7.4691 0 6.1216-0.1592 7.3287-1.0281 7.7936-0.47466 0.25404-17.127 0.32798-17.747 0.0788zm17.502-7.7489v-6.5874h-8.653-8.653v6.6135 6.6134l8.0804 0.0672c4.4442 0.037 8.3381 0.0252 8.653-0.0262l0.57262-0.0932v-6.5874zm-15.527 5.1621c-0.1552-0.0522-0.25208-2.0338-0.25208-5.1536v-5.0688h5.4445c4.7299 0 5.4648 0.0528 5.599 0.40258 0.085 0.2214 0.1544 2.4582 0.1544 4.9708 0 3.426-0.0796 4.5958-0.31812 4.6786-0.38284 0.1328-10.268 0.2915-10.628 0.1706zm2.0384-5.1324c0-3.9024-0.0212-4.072-0.509-4.072s-0.50902 0.1696-0.50902 4.072 0.0212 4.072 0.50902 4.072c0.4878 0 0.509-0.1696 0.509-4.072zm9.8407 4.4114c-0.37288-0.37288-0.1582-1.1028 0.3243-1.1028 0.64964 0 0.8997 0.4381 0.51478 0.9019-0.33598 0.40484-0.57738 0.46264-0.83908 0.20094zm1.7158-0.181c-0.20598-0.5368 0.0832-0.92176 0.6923-0.92176 0.38449 0 0.49147 0.1418 0.43037 0.57002-0.095 0.66526-0.90497 0.91904-1.1227 0.35174zm-1.8854-2.1792c0-0.6853 0.48146-0.91516 0.9453-0.45132s0.23398 0.9453-0.45132 0.9453c-0.3193 0-0.49398-0.1746-0.49398-0.49398zm1.9019 0.22832c-0.23368-0.37808 0.35572-1.0035 0.789-0.83724 0.55785 0.21406 0.45241 1.1029-0.1308 1.1029-0.2717 0-0.56786-0.1196-0.65816-0.26566zm-1.8052-1.8854c-0.1774-0.462 0.0802-0.90294 0.52734-0.90294 0.46434 0 0.67298 0.63718 0.32316 0.987-0.38768 0.38768-0.68058 0.35874-0.8505-0.084zm1.7775-0.01c-0.0882-0.22972-0.0382-0.5397 0.111-0.68886 0.38776-0.38776 1.1224-0.0334 1.0212 0.49258-0.11281 0.58584-0.92833 0.72722-1.1321 0.1962zm-1.1107-2.3695c0-0.23224 1.5979-1.8314 1.83-1.8314 0.38389 0 0.43291 0.89494 0.0786 1.4356-0.26754 0.40833-0.63578 0.60041-1.151 0.60041-0.4167 0-0.75764-0.092-0.75764-0.20458zm-0.632-0.79c-0.24244-0.76386 0.4809-1.7957 1.2589-1.7957 0.9771 0 0.9506 0.3562-0.103 1.385-0.93896 0.91689-0.98946 0.93483-1.1558 0.41066zm40.807 9.423c-0.55398-0.4503-0.59588-0.65076-0.53756-2.5724 0.0534-1.759-0.0954-2.671-0.95438-5.8482-1.1607-4.2936-1.2151-4.8912-0.50862-5.5977 0.40878-0.40878 0.84832-0.509 2.2325-0.509 1.5424 0 1.8216-0.0808 2.6569-0.76938 1.1775-0.9706 2.7217-1.5211 4.2666-1.5211 1.5836 0 2.6876 0.3903 4.0562 1.4339 1.092 0.83268 1.1916 0.85688 3.563 0.86566 2.6779 0.01 3.3343 0.23488 4.1075 1.4079 0.68698 1.0422 0.69516 4.8628 0.014 6.3634-0.57092 1.257-2.1294 2.5959-3.2711 2.81l-0.83936 0.1574 0.0604 1.5273c0.0548 1.3898-0.004 1.5819-0.6449 2.1339-0.70288 0.6046-0.72636 0.6066-7.1526 0.6066-5.9781 0-6.4911-0.0356-7.0482-0.48838zm13.434-1.1188c0.0626-0.0626-0.0708-2.1497-0.29668-4.638-0.38178-4.207-0.82728-6.4068-1.4542-7.1798-0.31072-0.38318-12.545-0.46532-12.78-0.0858-0.079 0.1278 0.3333 1.9888 0.91618 4.1356 0.86996 3.2041 1.0505 4.2532 1.0079 5.8565-0.0496 1.861-0.0244 1.9571 0.53214 2.036 0.86452 0.1226 11.941 0.008 12.074-0.1246zm-7.2401-2.0068c-0.41658-0.41658-0.42958-7.7318-0.014-7.9886 0.47374-0.2928 1.8052-0.1634 2.0342 0.1976 0.1164 0.1838 0.21358 1.9431 0.21574 3.9098 0.004 3.8388-0.1012 4.1865-1.2686 4.1865-0.36392 0-0.79912-0.1374-0.9671-0.3054zm0.98384-0.56518c-0.20618-0.24844-0.27564-1.4034-0.22204-3.6908 0.0502-2.1405-0.012-3.2989-0.1764-3.2442-0.26158 0.0874-0.50494 6.354-0.27048 6.965 0.07 0.1824 0.31666 0.33158 0.54816 0.33158 0.33484 0 0.35952-0.074 0.1208-0.36158zm9.0164-3.142c0.81964-0.81964 0.9364-1.3052 0.84174-3.5006l-0.0766-1.7762-1.6834-0.0744-1.6834-0.0744 0.31382 1.2197c0.1726 0.67084 0.39472 2.0943 0.49356 3.1633 0.161 1.7411 0.23004 1.9304 0.6629 1.8172 0.26576-0.0694 0.77488-0.41804 1.1314-0.77456zm-6.591-7.9096c-0.28942-0.4683-2.4024-0.81438-3.4859-0.57094-2.018 0.45344-1.6445 0.72822 1.0411 0.7659 1.4968 0.021 2.5274-0.0612 2.4448-0.195zm-63.503-8.84c-0.51127-0.64996-0.52749-0.9499-0.52749-9.7539v-9.0833l0.58905-0.55336c0.57646-0.54158 0.74446-0.55336 7.8796-0.55336 7.2092 0 7.2965 0.006 7.8183 0.56642 0.51697 0.55488 0.52625 0.757 0.45531 9.9148-0.0698 9.0062-0.091 9.3624-0.58143 9.7328-0.42588 0.32164-1.7007 0.38572-7.8074 0.39248l-7.2984 0.008-0.52746-0.67056zm14.97-0.69688c0.20458-0.2465 0.26998-2.2898 0.22204-6.9352l-0.068-6.5857-7.1896-0.0676-7.1897-0.0676v6.8331c0 3.7582 0.0764 6.9094 0.1696 7.0027 0.0934 0.0934 3.2287 0.1696 6.9676 0.1696 5.4529 0 6.8553-0.0692 7.088-0.34944zm-9.4133-2.2789c-1.6582-0.87574-2.6489-2.5939-2.6223-4.5478 0.016-1.2299 0.1554-1.6916 0.7711-2.5677 1.1588-1.6488 2.408-2.2548 4.4479-2.1578 1.3839 0.0658 1.8505 0.20826 2.6303 0.80304 2.4085 1.8371 2.8022 4.7886 0.9663 7.2452-1.3234 1.7709-4.1145 2.3229-6.1933 1.2251zm4.0995-0.99826c1.4227-0.72112 2.13-1.898 2.13-3.5441 0-3.8085-5.2284-5.2051-7.2253-1.93-0.68016 1.1155-0.67658 3.0942 0.008 4.2164 0.54606 0.89564 2.2152 1.8153 3.312 1.8247 0.35528 0.004 1.1543-0.25208 1.7757-0.56704zm-2.7027-0.2115c-0.95524-0.27714-2.0905-1.3612-2.3001-2.1963-0.0842-0.33562-0.085-1.0308-0.002-1.5448 0.43054-2.6532 3.5154-3.6931 5.5534-1.8722 0.63172 0.56446 0.80942 0.95604 0.91032 2.0061 0.1624 1.6891-0.5234 2.8911-1.9823 3.4749-1.1337 0.45364-1.0829 0.45056-2.1798 0.1322zm-0.8175-1.5615c-0.36982-0.3698-0.39534-2.0928-0.0408-2.7553 0.3006-0.56172 1.0678-1.0168 2.1574-1.2798 0.69938-0.1688 0.671-0.1864-0.33772-0.2103-2.1947-0.052-3.3997 2.3177-2.1492 4.2262 0.21594 0.32956 0.45536 0.53646 0.53204 0.45976 0.0768-0.0766 0.004-0.27496-0.1618-0.4406zm9.1154-11.112c0-0.95736-0.1258-1.6002-0.34928-1.7857-0.24682-0.20484-2.356-0.26998-7.1897-0.22204l-6.8404 0.0678-0.1292 1.2809c-0.23692 2.3505-0.89737 2.1548 7.2738 2.1548h7.2346v-1.4958zm-13.488-0.29c0-0.49486 0.12059-0.52696 1.7179-0.457 1.3239 0.058 1.7179 0.1628 1.7179 0.457s-0.39398 0.39902-1.7179 0.45702c-1.5972 0.07-1.7179 0.0378-1.7179-0.45702zm9.4165 0c0-0.3833 0.1328-0.52072 0.44538-0.46054 0.24496 0.0472 0.44538 0.25442 0.44538 0.46054 0 0.20614-0.20042 0.41338-0.44538 0.46056-0.3125 0.0602-0.44538-0.0772-0.44538-0.46056zm1.9088 0.2545c-0.21304-0.34468 0.0744-0.7635 0.52402-0.7635 0.2017 0 0.36672 0.22906 0.36672 0.509 0 0.5269-0.61398 0.70232-0.89074 0.2545zm12.98 16.493c-0.27994-0.1588-0.59314-0.41294-0.69598-0.56488-0.1028-0.152-0.187-2.2804-0.187-4.73s0.084-4.5798 0.187-4.7338c0.5192-0.77758 1.4018-0.86524 8.7128-0.86524 9.0695 0 8.8968-0.0532 8.9036 2.7359 0.002 1.2334 0.0886 1.5906 0.3808 1.5906 0.56446 0 0.6677-0.80492 0.58714-4.5779-0.0648-3.0327-0.1252-3.4426-0.51868-3.518-0.34608-0.0664-0.44536 0.089-0.44536 0.69674 0 0.44282-0.22082 1.003-0.509 1.2912-0.48712 0.4871-0.84834 0.509-8.3985 0.509-9.603 0-8.9075 0.28504-8.9075-3.6508 0-3.8586-0.65092-3.5849 8.7536-3.6807 7.5139-0.0766 7.6982-0.0662 8.3722 0.46386 0.58034 0.45648 0.68918 0.73744 0.68918 1.779 0 1.0613 0.0812 1.2617 0.57264 1.4114 1.4097 0.4296 1.4634 0.62114 1.4634 5.2253v4.2686l-0.67058 0.52746c-0.36882 0.29012-0.82694 0.5275-1.018 0.5275-0.26762 0-0.34742 0.52186-0.34742 2.272 0 3.4908 0.43318 3.3288-8.8782 3.3192-5.1366-0.006-7.6992-0.0996-8.0461-0.29638zm6.9951-2.2382c2.9367-2.0911 1.3455-6.8742-2.2868-6.8742-3.9373 0-5.2356 5.4358-1.726 7.2262 1.1198 0.57124 2.9405 0.41152 4.0128-0.35204zm-2.6056-0.0664c-0.0586-0.175-0.0242-0.6846 0.0764-1.1325 0.26462-1.1772 0.02-1.2155-0.90888-0.1418-0.71326 0.8251-0.87136 0.9023-1.2332 0.602-0.70132-0.58204-0.5025-1.2318 0.47572-1.5546 0.4899-0.1616 0.89076-0.43398 0.89076-0.6051 0-0.1858-0.35854-0.3111-0.89076-0.3111-1.0728 0-1.5095-0.37314-1.2806-1.0942 0.2143-0.67528 0.93628-0.68734 1.5351-0.0256 0.25336 0.27996 0.61468 0.50902 0.80296 0.50902 0.42304 0 0.42306 0.00056-0.0218-1.064-0.43026-1.0297-0.1938-1.5589 0.64334-1.4397 0.54184 0.0772 0.59532 0.1962 0.5244 1.1675-0.0434 0.5949 0.008 1.0816 0.1128 1.0816 0.1054 0 0.48644-0.35162 0.84658-0.78134 0.74478-0.88872 1.5455-0.81852 1.5455 0.1356 0 0.42434-0.20858 0.63204-0.80716 0.8037-1.0691 0.3066-1.2497 0.86014-0.28068 0.86014 0.96306 0 1.7285 0.56232 1.5167 1.1142-0.26638 0.6942-0.91788 0.77478-1.5398 0.1904-0.5024-0.47198-1.1795-0.72746-1.1795-0.44504 0 0.053 0.157 0.48238 0.34868 0.9544 0.43172 1.0625 0.29418 1.4944-0.47592 1.4944-0.32662 0-0.64186-0.1432-0.70052-0.31812zm0.71422-2.7581c0.26228-0.42436-0.32758-0.91098-0.67866-0.5599-0.29368 0.29368-0.1098 0.83658 0.28322 0.83658 0.1234 0 0.3014-0.1244 0.39544-0.27668zm-3.4954-8.8217 0.0812-0.57262h6.3448 6.3448v0.63626c0 0.5014 0.129 0.63624 0.60904 0.63624 0.33496 0 0.67854-0.1812 0.7635-0.40256 0.22616-0.58936 0.1812-3.9968-0.0578-4.3732-0.159-0.25044-1.8972-0.307-7.822-0.2545l-7.6176 0.0676-0.0746 2.142c-0.041 1.1781-0.012 2.3027 0.0624 2.4992 0.21976 0.57266 1.2723 0.28114 1.366-0.37834zm12.437-2.5185c-0.39206-0.39206-0.1648-1.1082 0.35174-1.1082 0.39588 0 0.5065 0.1372 0.44536 0.5527-0.0844 0.57398-0.49352 0.85902-0.7971 0.55546zm-2.211-0.57794c0-0.2683 0.1432-0.53774 0.31814-0.59876 0.52266-0.1824 0.95438 0.0912 0.95438 0.60478 0 0.34422-0.1816 0.48178-0.63626 0.48178-0.45734 0-0.63626-0.1372-0.63626-0.4878zm14.634 16.981c-0.27994-0.1588-0.59314-0.41294-0.69596-0.56488-0.1028-0.152-0.1888-4.2383-0.1908-9.0807-0.004-8.2092 0.0276-8.8329 0.46154-9.2257 0.41422-0.37488 1.4357-0.4212 9.2893-0.4212 8.4845 0 8.8434 0.02 9.3329 0.509 0.48896 0.48896 0.509 0.84834 0.509 9.1277 0 8.334-0.018 8.6409-0.52748 9.2893l-0.52746 0.67058-8.5709-0.008c-5.9075-0.006-8.7291-0.0974-9.08-0.29638zm17.45-1.2492c0.27028-0.43734 0.29544-16.287 0.0266-16.711-0.1594-0.2509-2.0754-0.30684-8.713-0.2545l-8.5086 0.067-0.0674 8.3985c-0.0552 6.8639-0.004 8.445 0.28018 8.653 0.21722 0.159 3.4291 0.24124 8.5608 0.21916 6.5169-0.028 8.2562-0.105 8.4216-0.37276zm-8.7454-0.64354c-0.32912-0.32912-0.1828-1.0555 0.24585-1.22 0.53638-0.20584 0.92308 0.1678 0.8055 0.77828-0.0934 0.48526-0.73732 0.75576-1.0514 0.44172zm2.1014-0.23366c-0.27048-0.3259-0.25378-0.46818 0.096-0.81804 0.39502-0.39502 0.452-0.39502 0.84702 0 0.34986 0.34986 0.36658 0.49214 0.096 0.81804-0.18 0.21698-0.41388 0.39454-0.51958 0.39454-0.1058 0-0.33952-0.1776-0.5196-0.39454zm2.2163 0.22486c-0.26724-0.26722-0.198-1.0552 0.1092-1.2452 0.40642-0.2512 1.0406 0.4872 0.84846 0.9879-0.1668 0.43446-0.65056 0.56444-0.9577 0.25728zm2.0448 0.008c-0.25518-0.2552-0.22048-1.0556 0.0532-1.2247 0.4471-0.27632 1.0687 0.1726 0.99082 0.71548-0.0772 0.53784-0.70768 0.84544-1.0439 0.50922zm-11.623-0.92822c-0.87634-0.44344-1.7893-1.8882-1.7882-2.8297 0.002-1.6377 1.596-3.2072 3.2573-3.2072 0.89172 0 2.3363 0.92534 2.793 1.7891 0.1936 0.36628 0.28532 1.1029 0.21964 1.7651-0.21518 2.1697-2.5472 3.4616-4.4817 2.4827zm7.8309-2.2312c-0.66986-0.66988-0.7549-0.90346-0.62526-1.7179 0.1734-1.0894 1.1672-2.0878 2.0782-2.0878 2.1615 0 3.2568 2.5079 1.7182 3.9345-0.99002 0.918-2.1724 0.87-3.1712-0.1288zm-7.9658-5.6382c-1.9177-1.0927-2.1567-4.0353-0.42706-5.2576 2.8505-2.0144 6.344 0.96058 4.7493 4.0444-0.68614 1.3268-2.9886 1.9731-4.3222 1.2132zm7.347-0.60336c-2.746-2.9116 1.3619-7.2078 4.2906-4.4873 1.4943 1.3881 1.4534 3.4493-0.0942 4.7516-0.59868 0.50376-1.0472 0.6446-2.0526 0.6446-1.1456 0-1.3805-0.0996-2.1437-0.90888zm16.576 11.415c-0.27994-0.0682-0.70942-0.30172-0.9544-0.51892-0.40804-0.36182-0.44534-1.1364-0.44534-9.2445v-8.8496l0.67056-0.52748c0.648-0.50972 0.95668-0.52746 9.1736-0.52746h8.503l0.6342 0.6342 0.6342 0.6342-0.0732 8.8051-0.0732 8.8051-0.60082 0.48628c-0.56542 0.45762-1.0829 0.48454-8.7803 0.45676-4.4987-0.016-8.4085-0.0854-8.6885-0.1536zm16.969-1.5111c0.0452-0.2319 0.0498-3.1523 0.01-6.4898l-0.0724-6.0682h-8.6442-8.6442v6.3201c0 3.4761 0.0764 6.3965 0.1696 6.4898 0.0934 0.0934 3.9788 0.1696 8.6344 0.1696 7.6771 0 8.4724-0.0392 8.547-0.4216zm-14.87-1.0571-0.95438-0.079v-5.0786-5.0786l7.1896 0.0676 7.1897 0.0676 0.069 5.0179 0.069 5.0178-6.3042 0.0722c-3.4673 0.0396-6.7337 0.0366-7.2586-0.006zm1.1331-5.148c0.0734-3.9578 0.0604-4.0795-0.4332-4.0084-0.4809 0.0692-0.51288 0.29474-0.5791 4.0817-0.0672 3.8473-0.0498 4.0084 0.43322 4.0084 0.47734 0 0.50722-0.2106 0.57908-4.0817zm13.692-9.1557v-1.5304l-8.5894 0.067-8.5894 0.067-0.0764 1.4634-0.0764 1.4634h8.6657 8.6657v-1.5304zm-11.512 0.1472c-0.1966-1.0285 0.0978-1.1926 1.9907-1.1106l1.7587 0.0762 0.0798 0.82714 0.0798 0.82712h-1.8952c-1.806 0-1.9008-0.0292-2.0137-0.6198zm-4.3522 0.1956c-0.37288-0.37288-0.1582-1.1028 0.32432-1.1028 0.64962 0 0.89968 0.4381 0.51478 0.9019-0.336 0.40484-0.57738 0.46264-0.8391 0.20094zm2.1474-0.0634c-0.49664-0.31414-0.1532-1.0396 0.49218-1.0396 0.40408 0 0.51482 0.135 0.45336 0.5527-0.0934 0.6347-0.4343 0.81024-0.94554 0.48686zm7.1922-0.1472c-0.0882-0.22972-0.0382-0.5397 0.111-0.68886 0.38774-0.38776 1.1224-0.0334 1.0212 0.49258-0.1128 0.58584-0.92834 0.72722-1.1321 0.1962zm2.2686 0.0946c-0.3873-0.38732-0.121-0.987 0.43822-0.987 0.55926 0 0.82552 0.59968 0.43822 0.987-0.157 0.157-0.35424 0.28552-0.43822 0.28552-0.084 0-0.28118-0.1284-0.43822-0.28552zm2.0579-0.0946c-0.0882-0.22972-0.0382-0.5397 0.111-0.68886 0.38774-0.38776 1.1224-0.0334 1.0212 0.49258-0.1128 0.58584-0.92834 0.72722-1.1321 0.1962z"/>
 </g>
</svg>
